M48
; DRILL file {KiCad 5.1.4+dfsg1-1} date Tue 19 Nov 2019 11:58:53 AM PST
; FORMAT={-:-/ absolute / metric / decimal}
; #@! TF.CreationDate,2019-11-19T11:58:53-08:00
; #@! TF.GenerationSoftware,Kicad,Pcbnew,5.1.4+dfsg1-1
FMAT,2
METRIC
T1C0.400
T2C1.000
%
G90
G05
T1
X7.112Y-18.796
X11.176Y-3.556
X11.176Y-5.588
X11.176Y-7.62
X11.176Y-9.652
X11.176Y-11.684
X11.176Y-13.716
X11.176Y-15.748
X11.176Y-17.78
X13.208Y-7.62
X14.732Y-11.684
X15.748Y-3.556
X17.78Y-5.588
X19.812Y-9.652
X20.828Y-17.78
X22.352Y-13.716
X25.4Y-15.748
X26.416Y-7.62
X27.94Y-11.684
X28.956Y-3.556
X30.988Y-9.652
X33.02Y-5.588
X34.036Y-17.78
X35.56Y-13.716
X38.608Y-15.748
X39.624Y-7.62
X41.148Y-11.684
X42.164Y-3.556
X44.196Y-13.716
X46.228Y-9.652
X47.244Y-17.78
X48.768Y-5.588
X51.816Y-15.748
X52.832Y-7.62
X54.356Y-11.684
X55.372Y-3.556
X57.404Y-17.78
X59.436Y-9.652
X60.452Y-5.588
X61.976Y-13.716
X65.024Y-15.748
X66.04Y-7.62
X67.564Y-11.684
X68.58Y-5.588
X70.612Y-3.556
X72.644Y-9.652
X73.66Y-17.78
X75.184Y-13.716
X78.232Y-15.748
X79.248Y-5.588
X80.772Y-11.684
X81.788Y-3.556
X83.866Y-7.666
X85.852Y-9.652
X86.868Y-17.78
X88.392Y-13.716
X91.44Y-15.748
X92.964Y-7.62
X93.98Y-5.588
X94.996Y-3.556
X97.028Y-11.684
X99.06Y-9.652
X100.076Y-17.78
X101.6Y-13.716
X104.648Y-5.588
X105.664Y-7.62
X107.188Y-11.684
X108.204Y-3.556
X110.236Y-15.748
X112.268Y-9.652
X113.284Y-17.78
X114.808Y-13.716
T2
X2.286Y-4.318
X2.286Y-6.858
X2.286Y-9.398
X2.286Y-11.938
X2.286Y-14.478
X2.286Y-17.018
X4.826Y-4.318
X4.826Y-6.858
X4.826Y-9.398
X4.826Y-11.938
X4.826Y-14.478
X4.826Y-17.018
T0
M30
