G04 #@! TF.GenerationSoftware,KiCad,Pcbnew,5.1.4+dfsg1-1*
G04 #@! TF.CreationDate,2019-11-19T11:58:45-08:00*
G04 #@! TF.ProjectId,pmod-7-segment-v3,706d6f64-2d37-42d7-9365-676d656e742d,rev?*
G04 #@! TF.SameCoordinates,PX1f7d860PY56b8320*
G04 #@! TF.FileFunction,Legend,Top*
G04 #@! TF.FilePolarity,Positive*
%FSLAX46Y46*%
G04 Gerber Fmt 4.6, Leading zero omitted, Abs format (unit mm)*
G04 Created by KiCad (PCBNEW 5.1.4+dfsg1-1) date 2019-11-19 11:58:45*
%MOMM*%
%LPD*%
G04 APERTURE LIST*
%ADD10C,0.254000*%
%ADD11C,1.000000*%
%ADD12C,0.120000*%
%ADD13C,0.800000*%
%ADD14C,0.150000*%
%ADD15C,0.300000*%
G04 APERTURE END LIST*
D10*
X-2794000Y-19558000D02*
X-2794000Y-10668000D01*
X-2794000Y-10668000D02*
X-2794000Y-1778000D01*
X-1524000Y-11938000D02*
X-2794000Y-10668000D01*
X-2794000Y-10668000D02*
X-1524000Y-9398000D01*
D11*
X6356000Y-3068000D02*
G75*
G03X6356000Y-3068000I-200000J0D01*
G01*
D12*
X9306779Y-3046000D02*
X8981221Y-3046000D01*
X9306779Y-4066000D02*
X8981221Y-4066000D01*
X9306779Y-5078000D02*
X8981221Y-5078000D01*
X9306779Y-6098000D02*
X8981221Y-6098000D01*
X9306779Y-7110000D02*
X8981221Y-7110000D01*
X9306779Y-8130000D02*
X8981221Y-8130000D01*
X9306779Y-9142000D02*
X8981221Y-9142000D01*
X9306779Y-10162000D02*
X8981221Y-10162000D01*
X9306779Y-11174000D02*
X8981221Y-11174000D01*
X9306779Y-12194000D02*
X8981221Y-12194000D01*
X9306779Y-13206000D02*
X8981221Y-13206000D01*
X9306779Y-14226000D02*
X8981221Y-14226000D01*
X9306779Y-15238000D02*
X8981221Y-15238000D01*
X9306779Y-16258000D02*
X8981221Y-16258000D01*
X9306779Y-17270000D02*
X8981221Y-17270000D01*
X9306779Y-18290000D02*
X8981221Y-18290000D01*
D13*
X115636000Y-18411999D02*
G75*
G03X115636000Y-18411999I-400000J0D01*
G01*
D11*
X106736000Y-18411999D02*
X112736000Y-18411999D01*
X106736000Y-10911999D02*
X112736000Y-10911999D01*
X113736000Y-12411999D02*
X113736000Y-16911999D01*
X105736000Y-12411999D02*
X105736000Y-16911999D01*
X113736000Y-4911999D02*
X113736000Y-9411999D01*
X105736000Y-4911999D02*
X105736000Y-9411999D01*
X106736000Y-3411999D02*
X112736000Y-3411999D01*
D14*
X103986000Y-20411999D02*
X103986000Y-1411999D01*
X116486000Y-20411999D02*
X103986000Y-20411999D01*
X116486000Y-1411999D02*
X116486000Y-20411999D01*
X103986000Y-1411999D02*
X116486000Y-1411999D01*
D13*
X102428000Y-18411999D02*
G75*
G03X102428000Y-18411999I-400000J0D01*
G01*
D11*
X93528000Y-18411999D02*
X99528000Y-18411999D01*
X93528000Y-10911999D02*
X99528000Y-10911999D01*
X100528000Y-12411999D02*
X100528000Y-16911999D01*
X92528000Y-12411999D02*
X92528000Y-16911999D01*
X100528000Y-4911999D02*
X100528000Y-9411999D01*
X92528000Y-4911999D02*
X92528000Y-9411999D01*
X93528000Y-3411999D02*
X99528000Y-3411999D01*
D14*
X90778000Y-20411999D02*
X90778000Y-1411999D01*
X103278000Y-20411999D02*
X90778000Y-20411999D01*
X103278000Y-1411999D02*
X103278000Y-20411999D01*
X90778000Y-1411999D02*
X103278000Y-1411999D01*
D13*
X89266000Y-18411999D02*
G75*
G03X89266000Y-18411999I-400000J0D01*
G01*
D11*
X80366000Y-18411999D02*
X86366000Y-18411999D01*
X80366000Y-10911999D02*
X86366000Y-10911999D01*
X87366000Y-12411999D02*
X87366000Y-16911999D01*
X79366000Y-12411999D02*
X79366000Y-16911999D01*
X87366000Y-4911999D02*
X87366000Y-9411999D01*
X79366000Y-4911999D02*
X79366000Y-9411999D01*
X80366000Y-3411999D02*
X86366000Y-3411999D01*
D14*
X77616000Y-20411999D02*
X77616000Y-1411999D01*
X90116000Y-20411999D02*
X77616000Y-20411999D01*
X90116000Y-1411999D02*
X90116000Y-20411999D01*
X77616000Y-1411999D02*
X90116000Y-1411999D01*
D13*
X76012000Y-18255999D02*
G75*
G03X76012000Y-18255999I-400000J0D01*
G01*
D11*
X67112000Y-18255999D02*
X73112000Y-18255999D01*
X67112000Y-10755999D02*
X73112000Y-10755999D01*
X74112000Y-12255999D02*
X74112000Y-16755999D01*
X66112000Y-12255999D02*
X66112000Y-16755999D01*
X74112000Y-4755999D02*
X74112000Y-9255999D01*
X66112000Y-4755999D02*
X66112000Y-9255999D01*
X67112000Y-3255999D02*
X73112000Y-3255999D01*
D14*
X64362000Y-20255999D02*
X64362000Y-1255999D01*
X76862000Y-20255999D02*
X64362000Y-20255999D01*
X76862000Y-1255999D02*
X76862000Y-20255999D01*
X64362000Y-1255999D02*
X76862000Y-1255999D01*
D13*
X62804000Y-18255999D02*
G75*
G03X62804000Y-18255999I-400000J0D01*
G01*
D11*
X53904000Y-18255999D02*
X59904000Y-18255999D01*
X53904000Y-10755999D02*
X59904000Y-10755999D01*
X60904000Y-12255999D02*
X60904000Y-16755999D01*
X52904000Y-12255999D02*
X52904000Y-16755999D01*
X60904000Y-4755999D02*
X60904000Y-9255999D01*
X52904000Y-4755999D02*
X52904000Y-9255999D01*
X53904000Y-3255999D02*
X59904000Y-3255999D01*
D14*
X51154000Y-20255999D02*
X51154000Y-1255999D01*
X63654000Y-20255999D02*
X51154000Y-20255999D01*
X63654000Y-1255999D02*
X63654000Y-20255999D01*
X51154000Y-1255999D02*
X63654000Y-1255999D01*
D13*
X49642000Y-18255999D02*
G75*
G03X49642000Y-18255999I-400000J0D01*
G01*
D11*
X40742000Y-18255999D02*
X46742000Y-18255999D01*
X40742000Y-10755999D02*
X46742000Y-10755999D01*
X47742000Y-12255999D02*
X47742000Y-16755999D01*
X39742000Y-12255999D02*
X39742000Y-16755999D01*
X47742000Y-4755999D02*
X47742000Y-9255999D01*
X39742000Y-4755999D02*
X39742000Y-9255999D01*
X40742000Y-3255999D02*
X46742000Y-3255999D01*
D14*
X37992000Y-20255999D02*
X37992000Y-1255999D01*
X50492000Y-20255999D02*
X37992000Y-20255999D01*
X50492000Y-1255999D02*
X50492000Y-20255999D01*
X37992000Y-1255999D02*
X50492000Y-1255999D01*
D13*
X36388000Y-18168000D02*
G75*
G03X36388000Y-18168000I-400000J0D01*
G01*
D11*
X27488000Y-18168000D02*
X33488000Y-18168000D01*
X27488000Y-10668000D02*
X33488000Y-10668000D01*
X34488000Y-12168000D02*
X34488000Y-16668000D01*
X26488000Y-12168000D02*
X26488000Y-16668000D01*
X34488000Y-4668000D02*
X34488000Y-9168000D01*
X26488000Y-4668000D02*
X26488000Y-9168000D01*
X27488000Y-3168000D02*
X33488000Y-3168000D01*
D14*
X24738000Y-20168000D02*
X24738000Y-1168000D01*
X37238000Y-20168000D02*
X24738000Y-20168000D01*
X37238000Y-1168000D02*
X37238000Y-20168000D01*
X24738000Y-1168000D02*
X37238000Y-1168000D01*
D13*
X23180000Y-18168000D02*
G75*
G03X23180000Y-18168000I-400000J0D01*
G01*
D11*
X14280000Y-18168000D02*
X20280000Y-18168000D01*
X14280000Y-10668000D02*
X20280000Y-10668000D01*
X21280000Y-12168000D02*
X21280000Y-16668000D01*
X13280000Y-12168000D02*
X13280000Y-16668000D01*
X21280000Y-4668000D02*
X21280000Y-9168000D01*
X13280000Y-4668000D02*
X13280000Y-9168000D01*
X14280000Y-3168000D02*
X20280000Y-3168000D01*
D14*
X11530000Y-20168000D02*
X11530000Y-1168000D01*
X24030000Y-20168000D02*
X11530000Y-20168000D01*
X24030000Y-1168000D02*
X24030000Y-20168000D01*
X11530000Y-1168000D02*
X24030000Y-1168000D01*
X3008380Y-11001333D02*
X3722666Y-11001333D01*
X3865523Y-11048952D01*
X3960761Y-11144190D01*
X4008380Y-11287047D01*
X4008380Y-11382285D01*
X4008380Y-10001333D02*
X4008380Y-10572761D01*
X4008380Y-10287047D02*
X3008380Y-10287047D01*
X3151238Y-10382285D01*
X3246476Y-10477523D01*
X3294095Y-10572761D01*
X8977333Y-5438380D02*
X8644000Y-4962190D01*
X8405904Y-5438380D02*
X8405904Y-4438380D01*
X8786857Y-4438380D01*
X8882095Y-4486000D01*
X8929714Y-4533619D01*
X8977333Y-4628857D01*
X8977333Y-4771714D01*
X8929714Y-4866952D01*
X8882095Y-4914571D01*
X8786857Y-4962190D01*
X8405904Y-4962190D01*
X9548761Y-4866952D02*
X9453523Y-4819333D01*
X9405904Y-4771714D01*
X9358285Y-4676476D01*
X9358285Y-4628857D01*
X9405904Y-4533619D01*
X9453523Y-4486000D01*
X9548761Y-4438380D01*
X9739238Y-4438380D01*
X9834476Y-4486000D01*
X9882095Y-4533619D01*
X9929714Y-4628857D01*
X9929714Y-4676476D01*
X9882095Y-4771714D01*
X9834476Y-4819333D01*
X9739238Y-4866952D01*
X9548761Y-4866952D01*
X9453523Y-4914571D01*
X9405904Y-4962190D01*
X9358285Y-5057428D01*
X9358285Y-5247904D01*
X9405904Y-5343142D01*
X9453523Y-5390761D01*
X9548761Y-5438380D01*
X9739238Y-5438380D01*
X9834476Y-5390761D01*
X9882095Y-5343142D01*
X9929714Y-5247904D01*
X9929714Y-5057428D01*
X9882095Y-4962190D01*
X9834476Y-4914571D01*
X9739238Y-4866952D01*
X9596380Y-7184666D02*
X9120190Y-7518000D01*
X9596380Y-7756095D02*
X8596380Y-7756095D01*
X8596380Y-7375142D01*
X8644000Y-7279904D01*
X8691619Y-7232285D01*
X8786857Y-7184666D01*
X8929714Y-7184666D01*
X9024952Y-7232285D01*
X9072571Y-7279904D01*
X9120190Y-7375142D01*
X9120190Y-7756095D01*
X8596380Y-6851333D02*
X8596380Y-6184666D01*
X9596380Y-6613238D01*
X8977333Y-9502380D02*
X8644000Y-9026190D01*
X8405904Y-9502380D02*
X8405904Y-8502380D01*
X8786857Y-8502380D01*
X8882095Y-8550000D01*
X8929714Y-8597619D01*
X8977333Y-8692857D01*
X8977333Y-8835714D01*
X8929714Y-8930952D01*
X8882095Y-8978571D01*
X8786857Y-9026190D01*
X8405904Y-9026190D01*
X9834476Y-8502380D02*
X9644000Y-8502380D01*
X9548761Y-8550000D01*
X9501142Y-8597619D01*
X9405904Y-8740476D01*
X9358285Y-8930952D01*
X9358285Y-9311904D01*
X9405904Y-9407142D01*
X9453523Y-9454761D01*
X9548761Y-9502380D01*
X9739238Y-9502380D01*
X9834476Y-9454761D01*
X9882095Y-9407142D01*
X9929714Y-9311904D01*
X9929714Y-9073809D01*
X9882095Y-8978571D01*
X9834476Y-8930952D01*
X9739238Y-8883333D01*
X9548761Y-8883333D01*
X9453523Y-8930952D01*
X9405904Y-8978571D01*
X9358285Y-9073809D01*
X8977333Y-11534380D02*
X8644000Y-11058190D01*
X8405904Y-11534380D02*
X8405904Y-10534380D01*
X8786857Y-10534380D01*
X8882095Y-10582000D01*
X8929714Y-10629619D01*
X8977333Y-10724857D01*
X8977333Y-10867714D01*
X8929714Y-10962952D01*
X8882095Y-11010571D01*
X8786857Y-11058190D01*
X8405904Y-11058190D01*
X9882095Y-10534380D02*
X9405904Y-10534380D01*
X9358285Y-11010571D01*
X9405904Y-10962952D01*
X9501142Y-10915333D01*
X9739238Y-10915333D01*
X9834476Y-10962952D01*
X9882095Y-11010571D01*
X9929714Y-11105809D01*
X9929714Y-11343904D01*
X9882095Y-11439142D01*
X9834476Y-11486761D01*
X9739238Y-11534380D01*
X9501142Y-11534380D01*
X9405904Y-11486761D01*
X9358285Y-11439142D01*
X8977333Y-13566380D02*
X8644000Y-13090190D01*
X8405904Y-13566380D02*
X8405904Y-12566380D01*
X8786857Y-12566380D01*
X8882095Y-12614000D01*
X8929714Y-12661619D01*
X8977333Y-12756857D01*
X8977333Y-12899714D01*
X8929714Y-12994952D01*
X8882095Y-13042571D01*
X8786857Y-13090190D01*
X8405904Y-13090190D01*
X9834476Y-12899714D02*
X9834476Y-13566380D01*
X9596380Y-12518761D02*
X9358285Y-13233047D01*
X9977333Y-13233047D01*
X8977333Y-15598380D02*
X8644000Y-15122190D01*
X8405904Y-15598380D02*
X8405904Y-14598380D01*
X8786857Y-14598380D01*
X8882095Y-14646000D01*
X8929714Y-14693619D01*
X8977333Y-14788857D01*
X8977333Y-14931714D01*
X8929714Y-15026952D01*
X8882095Y-15074571D01*
X8786857Y-15122190D01*
X8405904Y-15122190D01*
X9310666Y-14598380D02*
X9929714Y-14598380D01*
X9596380Y-14979333D01*
X9739238Y-14979333D01*
X9834476Y-15026952D01*
X9882095Y-15074571D01*
X9929714Y-15169809D01*
X9929714Y-15407904D01*
X9882095Y-15503142D01*
X9834476Y-15550761D01*
X9739238Y-15598380D01*
X9453523Y-15598380D01*
X9358285Y-15550761D01*
X9310666Y-15503142D01*
X8977333Y-17630380D02*
X8644000Y-17154190D01*
X8405904Y-17630380D02*
X8405904Y-16630380D01*
X8786857Y-16630380D01*
X8882095Y-16678000D01*
X8929714Y-16725619D01*
X8977333Y-16820857D01*
X8977333Y-16963714D01*
X8929714Y-17058952D01*
X8882095Y-17106571D01*
X8786857Y-17154190D01*
X8405904Y-17154190D01*
X9358285Y-16725619D02*
X9405904Y-16678000D01*
X9501142Y-16630380D01*
X9739238Y-16630380D01*
X9834476Y-16678000D01*
X9882095Y-16725619D01*
X9929714Y-16820857D01*
X9929714Y-16916095D01*
X9882095Y-17058952D01*
X9310666Y-17630380D01*
X9929714Y-17630380D01*
X8977333Y-19662380D02*
X8644000Y-19186190D01*
X8405904Y-19662380D02*
X8405904Y-18662380D01*
X8786857Y-18662380D01*
X8882095Y-18710000D01*
X8929714Y-18757619D01*
X8977333Y-18852857D01*
X8977333Y-18995714D01*
X8929714Y-19090952D01*
X8882095Y-19138571D01*
X8786857Y-19186190D01*
X8405904Y-19186190D01*
X9929714Y-19662380D02*
X9358285Y-19662380D01*
X9644000Y-19662380D02*
X9644000Y-18662380D01*
X9548761Y-18805238D01*
X9453523Y-18900476D01*
X9358285Y-18948095D01*
D15*
X108057428Y-8090570D02*
X107343142Y-8090570D01*
X107343142Y-6590570D01*
X108557428Y-7304856D02*
X109057428Y-7304856D01*
X109271714Y-8090570D02*
X108557428Y-8090570D01*
X108557428Y-6590570D01*
X109271714Y-6590570D01*
X109914571Y-8090570D02*
X109914571Y-6590570D01*
X110271714Y-6590570D01*
X110486000Y-6661999D01*
X110628857Y-6804856D01*
X110700285Y-6947713D01*
X110771714Y-7233427D01*
X110771714Y-7447713D01*
X110700285Y-7733427D01*
X110628857Y-7876284D01*
X110486000Y-8019141D01*
X110271714Y-8090570D01*
X109914571Y-8090570D01*
X111628857Y-7233427D02*
X111486000Y-7161999D01*
X111414571Y-7090570D01*
X111343142Y-6947713D01*
X111343142Y-6876284D01*
X111414571Y-6733427D01*
X111486000Y-6661999D01*
X111628857Y-6590570D01*
X111914571Y-6590570D01*
X112057428Y-6661999D01*
X112128857Y-6733427D01*
X112200285Y-6876284D01*
X112200285Y-6947713D01*
X112128857Y-7090570D01*
X112057428Y-7161999D01*
X111914571Y-7233427D01*
X111628857Y-7233427D01*
X111486000Y-7304856D01*
X111414571Y-7376284D01*
X111343142Y-7519141D01*
X111343142Y-7804856D01*
X111414571Y-7947713D01*
X111486000Y-8019141D01*
X111628857Y-8090570D01*
X111914571Y-8090570D01*
X112057428Y-8019141D01*
X112128857Y-7947713D01*
X112200285Y-7804856D01*
X112200285Y-7519141D01*
X112128857Y-7376284D01*
X112057428Y-7304856D01*
X111914571Y-7233427D01*
X94849428Y-8090570D02*
X94135142Y-8090570D01*
X94135142Y-6590570D01*
X95349428Y-7304856D02*
X95849428Y-7304856D01*
X96063714Y-8090570D02*
X95349428Y-8090570D01*
X95349428Y-6590570D01*
X96063714Y-6590570D01*
X96706571Y-8090570D02*
X96706571Y-6590570D01*
X97063714Y-6590570D01*
X97278000Y-6661999D01*
X97420857Y-6804856D01*
X97492285Y-6947713D01*
X97563714Y-7233427D01*
X97563714Y-7447713D01*
X97492285Y-7733427D01*
X97420857Y-7876284D01*
X97278000Y-8019141D01*
X97063714Y-8090570D01*
X96706571Y-8090570D01*
X98063714Y-6590570D02*
X99063714Y-6590570D01*
X98420857Y-8090570D01*
X81687428Y-8090570D02*
X80973142Y-8090570D01*
X80973142Y-6590570D01*
X82187428Y-7304856D02*
X82687428Y-7304856D01*
X82901714Y-8090570D02*
X82187428Y-8090570D01*
X82187428Y-6590570D01*
X82901714Y-6590570D01*
X83544571Y-8090570D02*
X83544571Y-6590570D01*
X83901714Y-6590570D01*
X84116000Y-6661999D01*
X84258857Y-6804856D01*
X84330285Y-6947713D01*
X84401714Y-7233427D01*
X84401714Y-7447713D01*
X84330285Y-7733427D01*
X84258857Y-7876284D01*
X84116000Y-8019141D01*
X83901714Y-8090570D01*
X83544571Y-8090570D01*
X85687428Y-6590570D02*
X85401714Y-6590570D01*
X85258857Y-6661999D01*
X85187428Y-6733427D01*
X85044571Y-6947713D01*
X84973142Y-7233427D01*
X84973142Y-7804856D01*
X85044571Y-7947713D01*
X85116000Y-8019141D01*
X85258857Y-8090570D01*
X85544571Y-8090570D01*
X85687428Y-8019141D01*
X85758857Y-7947713D01*
X85830285Y-7804856D01*
X85830285Y-7447713D01*
X85758857Y-7304856D01*
X85687428Y-7233427D01*
X85544571Y-7161999D01*
X85258857Y-7161999D01*
X85116000Y-7233427D01*
X85044571Y-7304856D01*
X84973142Y-7447713D01*
X68433428Y-7934570D02*
X67719142Y-7934570D01*
X67719142Y-6434570D01*
X68933428Y-7148856D02*
X69433428Y-7148856D01*
X69647714Y-7934570D02*
X68933428Y-7934570D01*
X68933428Y-6434570D01*
X69647714Y-6434570D01*
X70290571Y-7934570D02*
X70290571Y-6434570D01*
X70647714Y-6434570D01*
X70862000Y-6505999D01*
X71004857Y-6648856D01*
X71076285Y-6791713D01*
X71147714Y-7077427D01*
X71147714Y-7291713D01*
X71076285Y-7577427D01*
X71004857Y-7720284D01*
X70862000Y-7863141D01*
X70647714Y-7934570D01*
X70290571Y-7934570D01*
X72504857Y-6434570D02*
X71790571Y-6434570D01*
X71719142Y-7148856D01*
X71790571Y-7077427D01*
X71933428Y-7005999D01*
X72290571Y-7005999D01*
X72433428Y-7077427D01*
X72504857Y-7148856D01*
X72576285Y-7291713D01*
X72576285Y-7648856D01*
X72504857Y-7791713D01*
X72433428Y-7863141D01*
X72290571Y-7934570D01*
X71933428Y-7934570D01*
X71790571Y-7863141D01*
X71719142Y-7791713D01*
X55225428Y-7934570D02*
X54511142Y-7934570D01*
X54511142Y-6434570D01*
X55725428Y-7148856D02*
X56225428Y-7148856D01*
X56439714Y-7934570D02*
X55725428Y-7934570D01*
X55725428Y-6434570D01*
X56439714Y-6434570D01*
X57082571Y-7934570D02*
X57082571Y-6434570D01*
X57439714Y-6434570D01*
X57654000Y-6505999D01*
X57796857Y-6648856D01*
X57868285Y-6791713D01*
X57939714Y-7077427D01*
X57939714Y-7291713D01*
X57868285Y-7577427D01*
X57796857Y-7720284D01*
X57654000Y-7863141D01*
X57439714Y-7934570D01*
X57082571Y-7934570D01*
X59225428Y-6934570D02*
X59225428Y-7934570D01*
X58868285Y-6363141D02*
X58511142Y-7434570D01*
X59439714Y-7434570D01*
X42063428Y-7934570D02*
X41349142Y-7934570D01*
X41349142Y-6434570D01*
X42563428Y-7148856D02*
X43063428Y-7148856D01*
X43277714Y-7934570D02*
X42563428Y-7934570D01*
X42563428Y-6434570D01*
X43277714Y-6434570D01*
X43920571Y-7934570D02*
X43920571Y-6434570D01*
X44277714Y-6434570D01*
X44492000Y-6505999D01*
X44634857Y-6648856D01*
X44706285Y-6791713D01*
X44777714Y-7077427D01*
X44777714Y-7291713D01*
X44706285Y-7577427D01*
X44634857Y-7720284D01*
X44492000Y-7863141D01*
X44277714Y-7934570D01*
X43920571Y-7934570D01*
X45277714Y-6434570D02*
X46206285Y-6434570D01*
X45706285Y-7005999D01*
X45920571Y-7005999D01*
X46063428Y-7077427D01*
X46134857Y-7148856D01*
X46206285Y-7291713D01*
X46206285Y-7648856D01*
X46134857Y-7791713D01*
X46063428Y-7863141D01*
X45920571Y-7934570D01*
X45492000Y-7934570D01*
X45349142Y-7863141D01*
X45277714Y-7791713D01*
X28809428Y-7846571D02*
X28095142Y-7846571D01*
X28095142Y-6346571D01*
X29309428Y-7060857D02*
X29809428Y-7060857D01*
X30023714Y-7846571D02*
X29309428Y-7846571D01*
X29309428Y-6346571D01*
X30023714Y-6346571D01*
X30666571Y-7846571D02*
X30666571Y-6346571D01*
X31023714Y-6346571D01*
X31238000Y-6418000D01*
X31380857Y-6560857D01*
X31452285Y-6703714D01*
X31523714Y-6989428D01*
X31523714Y-7203714D01*
X31452285Y-7489428D01*
X31380857Y-7632285D01*
X31238000Y-7775142D01*
X31023714Y-7846571D01*
X30666571Y-7846571D01*
X32095142Y-6489428D02*
X32166571Y-6418000D01*
X32309428Y-6346571D01*
X32666571Y-6346571D01*
X32809428Y-6418000D01*
X32880857Y-6489428D01*
X32952285Y-6632285D01*
X32952285Y-6775142D01*
X32880857Y-6989428D01*
X32023714Y-7846571D01*
X32952285Y-7846571D01*
X15601428Y-7846571D02*
X14887142Y-7846571D01*
X14887142Y-6346571D01*
X16101428Y-7060857D02*
X16601428Y-7060857D01*
X16815714Y-7846571D02*
X16101428Y-7846571D01*
X16101428Y-6346571D01*
X16815714Y-6346571D01*
X17458571Y-7846571D02*
X17458571Y-6346571D01*
X17815714Y-6346571D01*
X18030000Y-6418000D01*
X18172857Y-6560857D01*
X18244285Y-6703714D01*
X18315714Y-6989428D01*
X18315714Y-7203714D01*
X18244285Y-7489428D01*
X18172857Y-7632285D01*
X18030000Y-7775142D01*
X17815714Y-7846571D01*
X17458571Y-7846571D01*
X19744285Y-7846571D02*
X18887142Y-7846571D01*
X19315714Y-7846571D02*
X19315714Y-6346571D01*
X19172857Y-6560857D01*
X19030000Y-6703714D01*
X18887142Y-6775142D01*
M02*
