G04 #@! TF.GenerationSoftware,KiCad,Pcbnew,5.1.4+dfsg1-1*
G04 #@! TF.CreationDate,2019-11-19T11:58:45-08:00*
G04 #@! TF.ProjectId,pmod-7-segment-v3,706d6f64-2d37-42d7-9365-676d656e742d,rev?*
G04 #@! TF.SameCoordinates,PX1f7d860PY56b8320*
G04 #@! TF.FileFunction,Copper,L2,Bot*
G04 #@! TF.FilePolarity,Positive*
%FSLAX46Y46*%
G04 Gerber Fmt 4.6, Leading zero omitted, Abs format (unit mm)*
G04 Created by KiCad (PCBNEW 5.1.4+dfsg1-1) date 2019-11-19 11:58:45*
%MOMM*%
%LPD*%
G04 APERTURE LIST*
%ADD10O,2.540000X1.700000*%
%ADD11C,0.800000*%
%ADD12C,0.250000*%
G04 APERTURE END LIST*
D10*
X5226000Y-17018000D03*
X1886000Y-17018000D03*
X5226000Y-14478000D03*
X1886000Y-14478000D03*
X5226000Y-11938000D03*
X1886000Y-11938000D03*
X5226000Y-9398000D03*
X1886000Y-9398000D03*
X5226000Y-6858000D03*
X1886000Y-6858000D03*
X5226000Y-4318000D03*
X1886000Y-4318000D03*
D11*
X7112000Y-18796000D03*
X11176000Y-15748000D03*
X110236000Y-15748000D03*
X91440000Y-15748000D03*
X78232000Y-15748000D03*
X65024000Y-15748000D03*
X51816000Y-15748000D03*
X38608000Y-15748000D03*
X25400000Y-15748000D03*
X11176000Y-11684000D03*
X107188000Y-11684000D03*
X97028000Y-11684000D03*
X80772000Y-11684000D03*
X67564000Y-11684000D03*
X54356000Y-11684000D03*
X41148000Y-11684000D03*
X27940000Y-11684000D03*
X14732000Y-11684000D03*
X11176000Y-9652000D03*
X112268000Y-9652000D03*
X85852000Y-9652000D03*
X99060000Y-9652000D03*
X30988000Y-9652000D03*
X72644000Y-9652000D03*
X59436000Y-9652000D03*
X46228000Y-9652000D03*
X19812000Y-9652000D03*
X11176000Y-13716000D03*
X114808000Y-13716000D03*
X88392000Y-13716000D03*
X101600000Y-13716000D03*
X44196000Y-13716000D03*
X75184000Y-13716000D03*
X61976000Y-13716000D03*
X35560000Y-13716000D03*
X22352000Y-13716000D03*
X11176000Y-5588000D03*
X104648000Y-5588000D03*
X93980000Y-5588000D03*
X79248000Y-5588000D03*
X17780000Y-5588000D03*
X68580000Y-5588000D03*
X60452000Y-5588000D03*
X48768000Y-5588000D03*
X33020000Y-5588000D03*
X11176000Y-17780000D03*
X113284000Y-17780000D03*
X100076000Y-17780000D03*
X86868000Y-17780000D03*
X57404000Y-17780000D03*
X73660000Y-17780000D03*
X47244000Y-17780000D03*
X34036000Y-17780000D03*
X20828000Y-17780000D03*
X11176000Y-3556000D03*
X108204000Y-3556000D03*
X94996000Y-3556000D03*
X81788000Y-3556000D03*
X70612000Y-3556000D03*
X55372000Y-3556000D03*
X42164000Y-3556000D03*
X28956000Y-3556000D03*
X15748000Y-3556000D03*
X11176000Y-7620000D03*
X105664000Y-7620000D03*
X92964000Y-7620000D03*
X83866000Y-7666000D03*
X66040000Y-7620000D03*
X52832000Y-7620000D03*
X39624000Y-7620000D03*
X26416000Y-7620000D03*
X13208000Y-7620000D03*
D12*
X4826000Y-11938000D02*
X7112000Y-14224000D01*
X7112000Y-14224000D02*
X7112000Y-18796000D01*
X65024000Y-15748000D02*
X110236000Y-15748000D01*
X51816000Y-15748000D02*
X65024000Y-15748000D01*
X38608000Y-15748000D02*
X51816000Y-15748000D01*
X11176000Y-15748000D02*
X25400000Y-15748000D01*
X25400000Y-15748000D02*
X38608000Y-15748000D01*
X97536000Y-11684000D02*
X107188000Y-11684000D01*
X80772000Y-11684000D02*
X97536000Y-11684000D01*
X67564000Y-11684000D02*
X80772000Y-11684000D01*
X41148000Y-11684000D02*
X67564000Y-11684000D01*
X27940000Y-11684000D02*
X41148000Y-11684000D01*
X11176000Y-11684000D02*
X14732000Y-11684000D01*
X14732000Y-11684000D02*
X27940000Y-11684000D01*
X85852000Y-9652000D02*
X99060000Y-9652000D01*
X99060000Y-9652000D02*
X112268000Y-9652000D01*
X72644000Y-9652000D02*
X85852000Y-9652000D01*
X59436000Y-9652000D02*
X72644000Y-9652000D01*
X30988000Y-9652000D02*
X46228000Y-9652000D01*
X46228000Y-9652000D02*
X59436000Y-9652000D01*
X11176000Y-9652000D02*
X19812000Y-9652000D01*
X19812000Y-9652000D02*
X30988000Y-9652000D01*
X88392000Y-13716000D02*
X101600000Y-13716000D01*
X101600000Y-13716000D02*
X114808000Y-13716000D01*
X75184000Y-13716000D02*
X88392000Y-13716000D01*
X44196000Y-13716000D02*
X61976000Y-13716000D01*
X61976000Y-13716000D02*
X75184000Y-13716000D01*
X35560000Y-13716000D02*
X44196000Y-13716000D01*
X11176000Y-13716000D02*
X22352000Y-13716000D01*
X22352000Y-13716000D02*
X35560000Y-13716000D01*
X93980000Y-5588000D02*
X104648000Y-5588000D01*
X79248000Y-5588000D02*
X93980000Y-5588000D01*
X11176000Y-5588000D02*
X17780000Y-5588000D01*
X68580000Y-5588000D02*
X79248000Y-5588000D01*
X60452000Y-5588000D02*
X68580000Y-5588000D01*
X17780000Y-5588000D02*
X33020000Y-5588000D01*
X33020000Y-5588000D02*
X60452000Y-5588000D01*
X86868000Y-17780000D02*
X113284000Y-17780000D01*
X73660000Y-17780000D02*
X86868000Y-17780000D01*
X11176000Y-17780000D02*
X47244000Y-17780000D01*
X47244000Y-17780000D02*
X73660000Y-17780000D01*
X81788000Y-3556000D02*
X108204000Y-3556000D01*
X55372000Y-3556000D02*
X81788000Y-3556000D01*
X42164000Y-3556000D02*
X55372000Y-3556000D01*
X11176000Y-3556000D02*
X15748000Y-3556000D01*
X15748000Y-3556000D02*
X42164000Y-3556000D01*
X92964000Y-7620000D02*
X105664000Y-7620000D01*
X39624000Y-7620000D02*
X92964000Y-7620000D01*
X11176000Y-7620000D02*
X13208000Y-7620000D01*
X13208000Y-7620000D02*
X39624000Y-7620000D01*
M02*
