G04 #@! TF.GenerationSoftware,KiCad,Pcbnew,5.1.4+dfsg1-1*
G04 #@! TF.CreationDate,2019-11-19T11:58:45-08:00*
G04 #@! TF.ProjectId,pmod-7-segment-v3,706d6f64-2d37-42d7-9365-676d656e742d,rev?*
G04 #@! TF.SameCoordinates,PX1f7d860PY56b8320*
G04 #@! TF.FileFunction,Copper,L1,Top*
G04 #@! TF.FilePolarity,Positive*
%FSLAX46Y46*%
G04 Gerber Fmt 4.6, Leading zero omitted, Abs format (unit mm)*
G04 Created by KiCad (PCBNEW 5.1.4+dfsg1-1) date 2019-11-19 11:58:45*
%MOMM*%
%LPD*%
G04 APERTURE LIST*
%ADD10O,2.540000X1.700000*%
%ADD11C,0.100000*%
%ADD12C,0.875000*%
%ADD13R,1.500000X2.000000*%
%ADD14C,0.800000*%
%ADD15C,0.250000*%
G04 APERTURE END LIST*
D10*
X5226000Y-17018000D03*
X1886000Y-17018000D03*
X5226000Y-14478000D03*
X1886000Y-14478000D03*
X5226000Y-11938000D03*
X1886000Y-11938000D03*
X5226000Y-9398000D03*
X1886000Y-9398000D03*
X5226000Y-6858000D03*
X1886000Y-6858000D03*
X5226000Y-4318000D03*
X1886000Y-4318000D03*
D11*
G36*
X8596691Y-3082053D02*
G01*
X8617926Y-3085203D01*
X8638750Y-3090419D01*
X8658962Y-3097651D01*
X8678368Y-3106830D01*
X8696781Y-3117866D01*
X8714024Y-3130654D01*
X8729930Y-3145070D01*
X8744346Y-3160976D01*
X8757134Y-3178219D01*
X8768170Y-3196632D01*
X8777349Y-3216038D01*
X8784581Y-3236250D01*
X8789797Y-3257074D01*
X8792947Y-3278309D01*
X8794000Y-3299750D01*
X8794000Y-3812250D01*
X8792947Y-3833691D01*
X8789797Y-3854926D01*
X8784581Y-3875750D01*
X8777349Y-3895962D01*
X8768170Y-3915368D01*
X8757134Y-3933781D01*
X8744346Y-3951024D01*
X8729930Y-3966930D01*
X8714024Y-3981346D01*
X8696781Y-3994134D01*
X8678368Y-4005170D01*
X8658962Y-4014349D01*
X8638750Y-4021581D01*
X8617926Y-4026797D01*
X8596691Y-4029947D01*
X8575250Y-4031000D01*
X8137750Y-4031000D01*
X8116309Y-4029947D01*
X8095074Y-4026797D01*
X8074250Y-4021581D01*
X8054038Y-4014349D01*
X8034632Y-4005170D01*
X8016219Y-3994134D01*
X7998976Y-3981346D01*
X7983070Y-3966930D01*
X7968654Y-3951024D01*
X7955866Y-3933781D01*
X7944830Y-3915368D01*
X7935651Y-3895962D01*
X7928419Y-3875750D01*
X7923203Y-3854926D01*
X7920053Y-3833691D01*
X7919000Y-3812250D01*
X7919000Y-3299750D01*
X7920053Y-3278309D01*
X7923203Y-3257074D01*
X7928419Y-3236250D01*
X7935651Y-3216038D01*
X7944830Y-3196632D01*
X7955866Y-3178219D01*
X7968654Y-3160976D01*
X7983070Y-3145070D01*
X7998976Y-3130654D01*
X8016219Y-3117866D01*
X8034632Y-3106830D01*
X8054038Y-3097651D01*
X8074250Y-3090419D01*
X8095074Y-3085203D01*
X8116309Y-3082053D01*
X8137750Y-3081000D01*
X8575250Y-3081000D01*
X8596691Y-3082053D01*
X8596691Y-3082053D01*
G37*
D12*
X8356500Y-3556000D03*
D11*
G36*
X10171691Y-3082053D02*
G01*
X10192926Y-3085203D01*
X10213750Y-3090419D01*
X10233962Y-3097651D01*
X10253368Y-3106830D01*
X10271781Y-3117866D01*
X10289024Y-3130654D01*
X10304930Y-3145070D01*
X10319346Y-3160976D01*
X10332134Y-3178219D01*
X10343170Y-3196632D01*
X10352349Y-3216038D01*
X10359581Y-3236250D01*
X10364797Y-3257074D01*
X10367947Y-3278309D01*
X10369000Y-3299750D01*
X10369000Y-3812250D01*
X10367947Y-3833691D01*
X10364797Y-3854926D01*
X10359581Y-3875750D01*
X10352349Y-3895962D01*
X10343170Y-3915368D01*
X10332134Y-3933781D01*
X10319346Y-3951024D01*
X10304930Y-3966930D01*
X10289024Y-3981346D01*
X10271781Y-3994134D01*
X10253368Y-4005170D01*
X10233962Y-4014349D01*
X10213750Y-4021581D01*
X10192926Y-4026797D01*
X10171691Y-4029947D01*
X10150250Y-4031000D01*
X9712750Y-4031000D01*
X9691309Y-4029947D01*
X9670074Y-4026797D01*
X9649250Y-4021581D01*
X9629038Y-4014349D01*
X9609632Y-4005170D01*
X9591219Y-3994134D01*
X9573976Y-3981346D01*
X9558070Y-3966930D01*
X9543654Y-3951024D01*
X9530866Y-3933781D01*
X9519830Y-3915368D01*
X9510651Y-3895962D01*
X9503419Y-3875750D01*
X9498203Y-3854926D01*
X9495053Y-3833691D01*
X9494000Y-3812250D01*
X9494000Y-3299750D01*
X9495053Y-3278309D01*
X9498203Y-3257074D01*
X9503419Y-3236250D01*
X9510651Y-3216038D01*
X9519830Y-3196632D01*
X9530866Y-3178219D01*
X9543654Y-3160976D01*
X9558070Y-3145070D01*
X9573976Y-3130654D01*
X9591219Y-3117866D01*
X9609632Y-3106830D01*
X9629038Y-3097651D01*
X9649250Y-3090419D01*
X9670074Y-3085203D01*
X9691309Y-3082053D01*
X9712750Y-3081000D01*
X10150250Y-3081000D01*
X10171691Y-3082053D01*
X10171691Y-3082053D01*
G37*
D12*
X9931500Y-3556000D03*
D11*
G36*
X8596691Y-5114053D02*
G01*
X8617926Y-5117203D01*
X8638750Y-5122419D01*
X8658962Y-5129651D01*
X8678368Y-5138830D01*
X8696781Y-5149866D01*
X8714024Y-5162654D01*
X8729930Y-5177070D01*
X8744346Y-5192976D01*
X8757134Y-5210219D01*
X8768170Y-5228632D01*
X8777349Y-5248038D01*
X8784581Y-5268250D01*
X8789797Y-5289074D01*
X8792947Y-5310309D01*
X8794000Y-5331750D01*
X8794000Y-5844250D01*
X8792947Y-5865691D01*
X8789797Y-5886926D01*
X8784581Y-5907750D01*
X8777349Y-5927962D01*
X8768170Y-5947368D01*
X8757134Y-5965781D01*
X8744346Y-5983024D01*
X8729930Y-5998930D01*
X8714024Y-6013346D01*
X8696781Y-6026134D01*
X8678368Y-6037170D01*
X8658962Y-6046349D01*
X8638750Y-6053581D01*
X8617926Y-6058797D01*
X8596691Y-6061947D01*
X8575250Y-6063000D01*
X8137750Y-6063000D01*
X8116309Y-6061947D01*
X8095074Y-6058797D01*
X8074250Y-6053581D01*
X8054038Y-6046349D01*
X8034632Y-6037170D01*
X8016219Y-6026134D01*
X7998976Y-6013346D01*
X7983070Y-5998930D01*
X7968654Y-5983024D01*
X7955866Y-5965781D01*
X7944830Y-5947368D01*
X7935651Y-5927962D01*
X7928419Y-5907750D01*
X7923203Y-5886926D01*
X7920053Y-5865691D01*
X7919000Y-5844250D01*
X7919000Y-5331750D01*
X7920053Y-5310309D01*
X7923203Y-5289074D01*
X7928419Y-5268250D01*
X7935651Y-5248038D01*
X7944830Y-5228632D01*
X7955866Y-5210219D01*
X7968654Y-5192976D01*
X7983070Y-5177070D01*
X7998976Y-5162654D01*
X8016219Y-5149866D01*
X8034632Y-5138830D01*
X8054038Y-5129651D01*
X8074250Y-5122419D01*
X8095074Y-5117203D01*
X8116309Y-5114053D01*
X8137750Y-5113000D01*
X8575250Y-5113000D01*
X8596691Y-5114053D01*
X8596691Y-5114053D01*
G37*
D12*
X8356500Y-5588000D03*
D11*
G36*
X10171691Y-5114053D02*
G01*
X10192926Y-5117203D01*
X10213750Y-5122419D01*
X10233962Y-5129651D01*
X10253368Y-5138830D01*
X10271781Y-5149866D01*
X10289024Y-5162654D01*
X10304930Y-5177070D01*
X10319346Y-5192976D01*
X10332134Y-5210219D01*
X10343170Y-5228632D01*
X10352349Y-5248038D01*
X10359581Y-5268250D01*
X10364797Y-5289074D01*
X10367947Y-5310309D01*
X10369000Y-5331750D01*
X10369000Y-5844250D01*
X10367947Y-5865691D01*
X10364797Y-5886926D01*
X10359581Y-5907750D01*
X10352349Y-5927962D01*
X10343170Y-5947368D01*
X10332134Y-5965781D01*
X10319346Y-5983024D01*
X10304930Y-5998930D01*
X10289024Y-6013346D01*
X10271781Y-6026134D01*
X10253368Y-6037170D01*
X10233962Y-6046349D01*
X10213750Y-6053581D01*
X10192926Y-6058797D01*
X10171691Y-6061947D01*
X10150250Y-6063000D01*
X9712750Y-6063000D01*
X9691309Y-6061947D01*
X9670074Y-6058797D01*
X9649250Y-6053581D01*
X9629038Y-6046349D01*
X9609632Y-6037170D01*
X9591219Y-6026134D01*
X9573976Y-6013346D01*
X9558070Y-5998930D01*
X9543654Y-5983024D01*
X9530866Y-5965781D01*
X9519830Y-5947368D01*
X9510651Y-5927962D01*
X9503419Y-5907750D01*
X9498203Y-5886926D01*
X9495053Y-5865691D01*
X9494000Y-5844250D01*
X9494000Y-5331750D01*
X9495053Y-5310309D01*
X9498203Y-5289074D01*
X9503419Y-5268250D01*
X9510651Y-5248038D01*
X9519830Y-5228632D01*
X9530866Y-5210219D01*
X9543654Y-5192976D01*
X9558070Y-5177070D01*
X9573976Y-5162654D01*
X9591219Y-5149866D01*
X9609632Y-5138830D01*
X9629038Y-5129651D01*
X9649250Y-5122419D01*
X9670074Y-5117203D01*
X9691309Y-5114053D01*
X9712750Y-5113000D01*
X10150250Y-5113000D01*
X10171691Y-5114053D01*
X10171691Y-5114053D01*
G37*
D12*
X9931500Y-5588000D03*
D11*
G36*
X8596691Y-7146053D02*
G01*
X8617926Y-7149203D01*
X8638750Y-7154419D01*
X8658962Y-7161651D01*
X8678368Y-7170830D01*
X8696781Y-7181866D01*
X8714024Y-7194654D01*
X8729930Y-7209070D01*
X8744346Y-7224976D01*
X8757134Y-7242219D01*
X8768170Y-7260632D01*
X8777349Y-7280038D01*
X8784581Y-7300250D01*
X8789797Y-7321074D01*
X8792947Y-7342309D01*
X8794000Y-7363750D01*
X8794000Y-7876250D01*
X8792947Y-7897691D01*
X8789797Y-7918926D01*
X8784581Y-7939750D01*
X8777349Y-7959962D01*
X8768170Y-7979368D01*
X8757134Y-7997781D01*
X8744346Y-8015024D01*
X8729930Y-8030930D01*
X8714024Y-8045346D01*
X8696781Y-8058134D01*
X8678368Y-8069170D01*
X8658962Y-8078349D01*
X8638750Y-8085581D01*
X8617926Y-8090797D01*
X8596691Y-8093947D01*
X8575250Y-8095000D01*
X8137750Y-8095000D01*
X8116309Y-8093947D01*
X8095074Y-8090797D01*
X8074250Y-8085581D01*
X8054038Y-8078349D01*
X8034632Y-8069170D01*
X8016219Y-8058134D01*
X7998976Y-8045346D01*
X7983070Y-8030930D01*
X7968654Y-8015024D01*
X7955866Y-7997781D01*
X7944830Y-7979368D01*
X7935651Y-7959962D01*
X7928419Y-7939750D01*
X7923203Y-7918926D01*
X7920053Y-7897691D01*
X7919000Y-7876250D01*
X7919000Y-7363750D01*
X7920053Y-7342309D01*
X7923203Y-7321074D01*
X7928419Y-7300250D01*
X7935651Y-7280038D01*
X7944830Y-7260632D01*
X7955866Y-7242219D01*
X7968654Y-7224976D01*
X7983070Y-7209070D01*
X7998976Y-7194654D01*
X8016219Y-7181866D01*
X8034632Y-7170830D01*
X8054038Y-7161651D01*
X8074250Y-7154419D01*
X8095074Y-7149203D01*
X8116309Y-7146053D01*
X8137750Y-7145000D01*
X8575250Y-7145000D01*
X8596691Y-7146053D01*
X8596691Y-7146053D01*
G37*
D12*
X8356500Y-7620000D03*
D11*
G36*
X10171691Y-7146053D02*
G01*
X10192926Y-7149203D01*
X10213750Y-7154419D01*
X10233962Y-7161651D01*
X10253368Y-7170830D01*
X10271781Y-7181866D01*
X10289024Y-7194654D01*
X10304930Y-7209070D01*
X10319346Y-7224976D01*
X10332134Y-7242219D01*
X10343170Y-7260632D01*
X10352349Y-7280038D01*
X10359581Y-7300250D01*
X10364797Y-7321074D01*
X10367947Y-7342309D01*
X10369000Y-7363750D01*
X10369000Y-7876250D01*
X10367947Y-7897691D01*
X10364797Y-7918926D01*
X10359581Y-7939750D01*
X10352349Y-7959962D01*
X10343170Y-7979368D01*
X10332134Y-7997781D01*
X10319346Y-8015024D01*
X10304930Y-8030930D01*
X10289024Y-8045346D01*
X10271781Y-8058134D01*
X10253368Y-8069170D01*
X10233962Y-8078349D01*
X10213750Y-8085581D01*
X10192926Y-8090797D01*
X10171691Y-8093947D01*
X10150250Y-8095000D01*
X9712750Y-8095000D01*
X9691309Y-8093947D01*
X9670074Y-8090797D01*
X9649250Y-8085581D01*
X9629038Y-8078349D01*
X9609632Y-8069170D01*
X9591219Y-8058134D01*
X9573976Y-8045346D01*
X9558070Y-8030930D01*
X9543654Y-8015024D01*
X9530866Y-7997781D01*
X9519830Y-7979368D01*
X9510651Y-7959962D01*
X9503419Y-7939750D01*
X9498203Y-7918926D01*
X9495053Y-7897691D01*
X9494000Y-7876250D01*
X9494000Y-7363750D01*
X9495053Y-7342309D01*
X9498203Y-7321074D01*
X9503419Y-7300250D01*
X9510651Y-7280038D01*
X9519830Y-7260632D01*
X9530866Y-7242219D01*
X9543654Y-7224976D01*
X9558070Y-7209070D01*
X9573976Y-7194654D01*
X9591219Y-7181866D01*
X9609632Y-7170830D01*
X9629038Y-7161651D01*
X9649250Y-7154419D01*
X9670074Y-7149203D01*
X9691309Y-7146053D01*
X9712750Y-7145000D01*
X10150250Y-7145000D01*
X10171691Y-7146053D01*
X10171691Y-7146053D01*
G37*
D12*
X9931500Y-7620000D03*
D11*
G36*
X8596691Y-9178053D02*
G01*
X8617926Y-9181203D01*
X8638750Y-9186419D01*
X8658962Y-9193651D01*
X8678368Y-9202830D01*
X8696781Y-9213866D01*
X8714024Y-9226654D01*
X8729930Y-9241070D01*
X8744346Y-9256976D01*
X8757134Y-9274219D01*
X8768170Y-9292632D01*
X8777349Y-9312038D01*
X8784581Y-9332250D01*
X8789797Y-9353074D01*
X8792947Y-9374309D01*
X8794000Y-9395750D01*
X8794000Y-9908250D01*
X8792947Y-9929691D01*
X8789797Y-9950926D01*
X8784581Y-9971750D01*
X8777349Y-9991962D01*
X8768170Y-10011368D01*
X8757134Y-10029781D01*
X8744346Y-10047024D01*
X8729930Y-10062930D01*
X8714024Y-10077346D01*
X8696781Y-10090134D01*
X8678368Y-10101170D01*
X8658962Y-10110349D01*
X8638750Y-10117581D01*
X8617926Y-10122797D01*
X8596691Y-10125947D01*
X8575250Y-10127000D01*
X8137750Y-10127000D01*
X8116309Y-10125947D01*
X8095074Y-10122797D01*
X8074250Y-10117581D01*
X8054038Y-10110349D01*
X8034632Y-10101170D01*
X8016219Y-10090134D01*
X7998976Y-10077346D01*
X7983070Y-10062930D01*
X7968654Y-10047024D01*
X7955866Y-10029781D01*
X7944830Y-10011368D01*
X7935651Y-9991962D01*
X7928419Y-9971750D01*
X7923203Y-9950926D01*
X7920053Y-9929691D01*
X7919000Y-9908250D01*
X7919000Y-9395750D01*
X7920053Y-9374309D01*
X7923203Y-9353074D01*
X7928419Y-9332250D01*
X7935651Y-9312038D01*
X7944830Y-9292632D01*
X7955866Y-9274219D01*
X7968654Y-9256976D01*
X7983070Y-9241070D01*
X7998976Y-9226654D01*
X8016219Y-9213866D01*
X8034632Y-9202830D01*
X8054038Y-9193651D01*
X8074250Y-9186419D01*
X8095074Y-9181203D01*
X8116309Y-9178053D01*
X8137750Y-9177000D01*
X8575250Y-9177000D01*
X8596691Y-9178053D01*
X8596691Y-9178053D01*
G37*
D12*
X8356500Y-9652000D03*
D11*
G36*
X10171691Y-9178053D02*
G01*
X10192926Y-9181203D01*
X10213750Y-9186419D01*
X10233962Y-9193651D01*
X10253368Y-9202830D01*
X10271781Y-9213866D01*
X10289024Y-9226654D01*
X10304930Y-9241070D01*
X10319346Y-9256976D01*
X10332134Y-9274219D01*
X10343170Y-9292632D01*
X10352349Y-9312038D01*
X10359581Y-9332250D01*
X10364797Y-9353074D01*
X10367947Y-9374309D01*
X10369000Y-9395750D01*
X10369000Y-9908250D01*
X10367947Y-9929691D01*
X10364797Y-9950926D01*
X10359581Y-9971750D01*
X10352349Y-9991962D01*
X10343170Y-10011368D01*
X10332134Y-10029781D01*
X10319346Y-10047024D01*
X10304930Y-10062930D01*
X10289024Y-10077346D01*
X10271781Y-10090134D01*
X10253368Y-10101170D01*
X10233962Y-10110349D01*
X10213750Y-10117581D01*
X10192926Y-10122797D01*
X10171691Y-10125947D01*
X10150250Y-10127000D01*
X9712750Y-10127000D01*
X9691309Y-10125947D01*
X9670074Y-10122797D01*
X9649250Y-10117581D01*
X9629038Y-10110349D01*
X9609632Y-10101170D01*
X9591219Y-10090134D01*
X9573976Y-10077346D01*
X9558070Y-10062930D01*
X9543654Y-10047024D01*
X9530866Y-10029781D01*
X9519830Y-10011368D01*
X9510651Y-9991962D01*
X9503419Y-9971750D01*
X9498203Y-9950926D01*
X9495053Y-9929691D01*
X9494000Y-9908250D01*
X9494000Y-9395750D01*
X9495053Y-9374309D01*
X9498203Y-9353074D01*
X9503419Y-9332250D01*
X9510651Y-9312038D01*
X9519830Y-9292632D01*
X9530866Y-9274219D01*
X9543654Y-9256976D01*
X9558070Y-9241070D01*
X9573976Y-9226654D01*
X9591219Y-9213866D01*
X9609632Y-9202830D01*
X9629038Y-9193651D01*
X9649250Y-9186419D01*
X9670074Y-9181203D01*
X9691309Y-9178053D01*
X9712750Y-9177000D01*
X10150250Y-9177000D01*
X10171691Y-9178053D01*
X10171691Y-9178053D01*
G37*
D12*
X9931500Y-9652000D03*
D11*
G36*
X8596691Y-11210053D02*
G01*
X8617926Y-11213203D01*
X8638750Y-11218419D01*
X8658962Y-11225651D01*
X8678368Y-11234830D01*
X8696781Y-11245866D01*
X8714024Y-11258654D01*
X8729930Y-11273070D01*
X8744346Y-11288976D01*
X8757134Y-11306219D01*
X8768170Y-11324632D01*
X8777349Y-11344038D01*
X8784581Y-11364250D01*
X8789797Y-11385074D01*
X8792947Y-11406309D01*
X8794000Y-11427750D01*
X8794000Y-11940250D01*
X8792947Y-11961691D01*
X8789797Y-11982926D01*
X8784581Y-12003750D01*
X8777349Y-12023962D01*
X8768170Y-12043368D01*
X8757134Y-12061781D01*
X8744346Y-12079024D01*
X8729930Y-12094930D01*
X8714024Y-12109346D01*
X8696781Y-12122134D01*
X8678368Y-12133170D01*
X8658962Y-12142349D01*
X8638750Y-12149581D01*
X8617926Y-12154797D01*
X8596691Y-12157947D01*
X8575250Y-12159000D01*
X8137750Y-12159000D01*
X8116309Y-12157947D01*
X8095074Y-12154797D01*
X8074250Y-12149581D01*
X8054038Y-12142349D01*
X8034632Y-12133170D01*
X8016219Y-12122134D01*
X7998976Y-12109346D01*
X7983070Y-12094930D01*
X7968654Y-12079024D01*
X7955866Y-12061781D01*
X7944830Y-12043368D01*
X7935651Y-12023962D01*
X7928419Y-12003750D01*
X7923203Y-11982926D01*
X7920053Y-11961691D01*
X7919000Y-11940250D01*
X7919000Y-11427750D01*
X7920053Y-11406309D01*
X7923203Y-11385074D01*
X7928419Y-11364250D01*
X7935651Y-11344038D01*
X7944830Y-11324632D01*
X7955866Y-11306219D01*
X7968654Y-11288976D01*
X7983070Y-11273070D01*
X7998976Y-11258654D01*
X8016219Y-11245866D01*
X8034632Y-11234830D01*
X8054038Y-11225651D01*
X8074250Y-11218419D01*
X8095074Y-11213203D01*
X8116309Y-11210053D01*
X8137750Y-11209000D01*
X8575250Y-11209000D01*
X8596691Y-11210053D01*
X8596691Y-11210053D01*
G37*
D12*
X8356500Y-11684000D03*
D11*
G36*
X10171691Y-11210053D02*
G01*
X10192926Y-11213203D01*
X10213750Y-11218419D01*
X10233962Y-11225651D01*
X10253368Y-11234830D01*
X10271781Y-11245866D01*
X10289024Y-11258654D01*
X10304930Y-11273070D01*
X10319346Y-11288976D01*
X10332134Y-11306219D01*
X10343170Y-11324632D01*
X10352349Y-11344038D01*
X10359581Y-11364250D01*
X10364797Y-11385074D01*
X10367947Y-11406309D01*
X10369000Y-11427750D01*
X10369000Y-11940250D01*
X10367947Y-11961691D01*
X10364797Y-11982926D01*
X10359581Y-12003750D01*
X10352349Y-12023962D01*
X10343170Y-12043368D01*
X10332134Y-12061781D01*
X10319346Y-12079024D01*
X10304930Y-12094930D01*
X10289024Y-12109346D01*
X10271781Y-12122134D01*
X10253368Y-12133170D01*
X10233962Y-12142349D01*
X10213750Y-12149581D01*
X10192926Y-12154797D01*
X10171691Y-12157947D01*
X10150250Y-12159000D01*
X9712750Y-12159000D01*
X9691309Y-12157947D01*
X9670074Y-12154797D01*
X9649250Y-12149581D01*
X9629038Y-12142349D01*
X9609632Y-12133170D01*
X9591219Y-12122134D01*
X9573976Y-12109346D01*
X9558070Y-12094930D01*
X9543654Y-12079024D01*
X9530866Y-12061781D01*
X9519830Y-12043368D01*
X9510651Y-12023962D01*
X9503419Y-12003750D01*
X9498203Y-11982926D01*
X9495053Y-11961691D01*
X9494000Y-11940250D01*
X9494000Y-11427750D01*
X9495053Y-11406309D01*
X9498203Y-11385074D01*
X9503419Y-11364250D01*
X9510651Y-11344038D01*
X9519830Y-11324632D01*
X9530866Y-11306219D01*
X9543654Y-11288976D01*
X9558070Y-11273070D01*
X9573976Y-11258654D01*
X9591219Y-11245866D01*
X9609632Y-11234830D01*
X9629038Y-11225651D01*
X9649250Y-11218419D01*
X9670074Y-11213203D01*
X9691309Y-11210053D01*
X9712750Y-11209000D01*
X10150250Y-11209000D01*
X10171691Y-11210053D01*
X10171691Y-11210053D01*
G37*
D12*
X9931500Y-11684000D03*
D11*
G36*
X8596691Y-13242053D02*
G01*
X8617926Y-13245203D01*
X8638750Y-13250419D01*
X8658962Y-13257651D01*
X8678368Y-13266830D01*
X8696781Y-13277866D01*
X8714024Y-13290654D01*
X8729930Y-13305070D01*
X8744346Y-13320976D01*
X8757134Y-13338219D01*
X8768170Y-13356632D01*
X8777349Y-13376038D01*
X8784581Y-13396250D01*
X8789797Y-13417074D01*
X8792947Y-13438309D01*
X8794000Y-13459750D01*
X8794000Y-13972250D01*
X8792947Y-13993691D01*
X8789797Y-14014926D01*
X8784581Y-14035750D01*
X8777349Y-14055962D01*
X8768170Y-14075368D01*
X8757134Y-14093781D01*
X8744346Y-14111024D01*
X8729930Y-14126930D01*
X8714024Y-14141346D01*
X8696781Y-14154134D01*
X8678368Y-14165170D01*
X8658962Y-14174349D01*
X8638750Y-14181581D01*
X8617926Y-14186797D01*
X8596691Y-14189947D01*
X8575250Y-14191000D01*
X8137750Y-14191000D01*
X8116309Y-14189947D01*
X8095074Y-14186797D01*
X8074250Y-14181581D01*
X8054038Y-14174349D01*
X8034632Y-14165170D01*
X8016219Y-14154134D01*
X7998976Y-14141346D01*
X7983070Y-14126930D01*
X7968654Y-14111024D01*
X7955866Y-14093781D01*
X7944830Y-14075368D01*
X7935651Y-14055962D01*
X7928419Y-14035750D01*
X7923203Y-14014926D01*
X7920053Y-13993691D01*
X7919000Y-13972250D01*
X7919000Y-13459750D01*
X7920053Y-13438309D01*
X7923203Y-13417074D01*
X7928419Y-13396250D01*
X7935651Y-13376038D01*
X7944830Y-13356632D01*
X7955866Y-13338219D01*
X7968654Y-13320976D01*
X7983070Y-13305070D01*
X7998976Y-13290654D01*
X8016219Y-13277866D01*
X8034632Y-13266830D01*
X8054038Y-13257651D01*
X8074250Y-13250419D01*
X8095074Y-13245203D01*
X8116309Y-13242053D01*
X8137750Y-13241000D01*
X8575250Y-13241000D01*
X8596691Y-13242053D01*
X8596691Y-13242053D01*
G37*
D12*
X8356500Y-13716000D03*
D11*
G36*
X10171691Y-13242053D02*
G01*
X10192926Y-13245203D01*
X10213750Y-13250419D01*
X10233962Y-13257651D01*
X10253368Y-13266830D01*
X10271781Y-13277866D01*
X10289024Y-13290654D01*
X10304930Y-13305070D01*
X10319346Y-13320976D01*
X10332134Y-13338219D01*
X10343170Y-13356632D01*
X10352349Y-13376038D01*
X10359581Y-13396250D01*
X10364797Y-13417074D01*
X10367947Y-13438309D01*
X10369000Y-13459750D01*
X10369000Y-13972250D01*
X10367947Y-13993691D01*
X10364797Y-14014926D01*
X10359581Y-14035750D01*
X10352349Y-14055962D01*
X10343170Y-14075368D01*
X10332134Y-14093781D01*
X10319346Y-14111024D01*
X10304930Y-14126930D01*
X10289024Y-14141346D01*
X10271781Y-14154134D01*
X10253368Y-14165170D01*
X10233962Y-14174349D01*
X10213750Y-14181581D01*
X10192926Y-14186797D01*
X10171691Y-14189947D01*
X10150250Y-14191000D01*
X9712750Y-14191000D01*
X9691309Y-14189947D01*
X9670074Y-14186797D01*
X9649250Y-14181581D01*
X9629038Y-14174349D01*
X9609632Y-14165170D01*
X9591219Y-14154134D01*
X9573976Y-14141346D01*
X9558070Y-14126930D01*
X9543654Y-14111024D01*
X9530866Y-14093781D01*
X9519830Y-14075368D01*
X9510651Y-14055962D01*
X9503419Y-14035750D01*
X9498203Y-14014926D01*
X9495053Y-13993691D01*
X9494000Y-13972250D01*
X9494000Y-13459750D01*
X9495053Y-13438309D01*
X9498203Y-13417074D01*
X9503419Y-13396250D01*
X9510651Y-13376038D01*
X9519830Y-13356632D01*
X9530866Y-13338219D01*
X9543654Y-13320976D01*
X9558070Y-13305070D01*
X9573976Y-13290654D01*
X9591219Y-13277866D01*
X9609632Y-13266830D01*
X9629038Y-13257651D01*
X9649250Y-13250419D01*
X9670074Y-13245203D01*
X9691309Y-13242053D01*
X9712750Y-13241000D01*
X10150250Y-13241000D01*
X10171691Y-13242053D01*
X10171691Y-13242053D01*
G37*
D12*
X9931500Y-13716000D03*
D11*
G36*
X8596691Y-15274053D02*
G01*
X8617926Y-15277203D01*
X8638750Y-15282419D01*
X8658962Y-15289651D01*
X8678368Y-15298830D01*
X8696781Y-15309866D01*
X8714024Y-15322654D01*
X8729930Y-15337070D01*
X8744346Y-15352976D01*
X8757134Y-15370219D01*
X8768170Y-15388632D01*
X8777349Y-15408038D01*
X8784581Y-15428250D01*
X8789797Y-15449074D01*
X8792947Y-15470309D01*
X8794000Y-15491750D01*
X8794000Y-16004250D01*
X8792947Y-16025691D01*
X8789797Y-16046926D01*
X8784581Y-16067750D01*
X8777349Y-16087962D01*
X8768170Y-16107368D01*
X8757134Y-16125781D01*
X8744346Y-16143024D01*
X8729930Y-16158930D01*
X8714024Y-16173346D01*
X8696781Y-16186134D01*
X8678368Y-16197170D01*
X8658962Y-16206349D01*
X8638750Y-16213581D01*
X8617926Y-16218797D01*
X8596691Y-16221947D01*
X8575250Y-16223000D01*
X8137750Y-16223000D01*
X8116309Y-16221947D01*
X8095074Y-16218797D01*
X8074250Y-16213581D01*
X8054038Y-16206349D01*
X8034632Y-16197170D01*
X8016219Y-16186134D01*
X7998976Y-16173346D01*
X7983070Y-16158930D01*
X7968654Y-16143024D01*
X7955866Y-16125781D01*
X7944830Y-16107368D01*
X7935651Y-16087962D01*
X7928419Y-16067750D01*
X7923203Y-16046926D01*
X7920053Y-16025691D01*
X7919000Y-16004250D01*
X7919000Y-15491750D01*
X7920053Y-15470309D01*
X7923203Y-15449074D01*
X7928419Y-15428250D01*
X7935651Y-15408038D01*
X7944830Y-15388632D01*
X7955866Y-15370219D01*
X7968654Y-15352976D01*
X7983070Y-15337070D01*
X7998976Y-15322654D01*
X8016219Y-15309866D01*
X8034632Y-15298830D01*
X8054038Y-15289651D01*
X8074250Y-15282419D01*
X8095074Y-15277203D01*
X8116309Y-15274053D01*
X8137750Y-15273000D01*
X8575250Y-15273000D01*
X8596691Y-15274053D01*
X8596691Y-15274053D01*
G37*
D12*
X8356500Y-15748000D03*
D11*
G36*
X10171691Y-15274053D02*
G01*
X10192926Y-15277203D01*
X10213750Y-15282419D01*
X10233962Y-15289651D01*
X10253368Y-15298830D01*
X10271781Y-15309866D01*
X10289024Y-15322654D01*
X10304930Y-15337070D01*
X10319346Y-15352976D01*
X10332134Y-15370219D01*
X10343170Y-15388632D01*
X10352349Y-15408038D01*
X10359581Y-15428250D01*
X10364797Y-15449074D01*
X10367947Y-15470309D01*
X10369000Y-15491750D01*
X10369000Y-16004250D01*
X10367947Y-16025691D01*
X10364797Y-16046926D01*
X10359581Y-16067750D01*
X10352349Y-16087962D01*
X10343170Y-16107368D01*
X10332134Y-16125781D01*
X10319346Y-16143024D01*
X10304930Y-16158930D01*
X10289024Y-16173346D01*
X10271781Y-16186134D01*
X10253368Y-16197170D01*
X10233962Y-16206349D01*
X10213750Y-16213581D01*
X10192926Y-16218797D01*
X10171691Y-16221947D01*
X10150250Y-16223000D01*
X9712750Y-16223000D01*
X9691309Y-16221947D01*
X9670074Y-16218797D01*
X9649250Y-16213581D01*
X9629038Y-16206349D01*
X9609632Y-16197170D01*
X9591219Y-16186134D01*
X9573976Y-16173346D01*
X9558070Y-16158930D01*
X9543654Y-16143024D01*
X9530866Y-16125781D01*
X9519830Y-16107368D01*
X9510651Y-16087962D01*
X9503419Y-16067750D01*
X9498203Y-16046926D01*
X9495053Y-16025691D01*
X9494000Y-16004250D01*
X9494000Y-15491750D01*
X9495053Y-15470309D01*
X9498203Y-15449074D01*
X9503419Y-15428250D01*
X9510651Y-15408038D01*
X9519830Y-15388632D01*
X9530866Y-15370219D01*
X9543654Y-15352976D01*
X9558070Y-15337070D01*
X9573976Y-15322654D01*
X9591219Y-15309866D01*
X9609632Y-15298830D01*
X9629038Y-15289651D01*
X9649250Y-15282419D01*
X9670074Y-15277203D01*
X9691309Y-15274053D01*
X9712750Y-15273000D01*
X10150250Y-15273000D01*
X10171691Y-15274053D01*
X10171691Y-15274053D01*
G37*
D12*
X9931500Y-15748000D03*
D11*
G36*
X8596691Y-17306053D02*
G01*
X8617926Y-17309203D01*
X8638750Y-17314419D01*
X8658962Y-17321651D01*
X8678368Y-17330830D01*
X8696781Y-17341866D01*
X8714024Y-17354654D01*
X8729930Y-17369070D01*
X8744346Y-17384976D01*
X8757134Y-17402219D01*
X8768170Y-17420632D01*
X8777349Y-17440038D01*
X8784581Y-17460250D01*
X8789797Y-17481074D01*
X8792947Y-17502309D01*
X8794000Y-17523750D01*
X8794000Y-18036250D01*
X8792947Y-18057691D01*
X8789797Y-18078926D01*
X8784581Y-18099750D01*
X8777349Y-18119962D01*
X8768170Y-18139368D01*
X8757134Y-18157781D01*
X8744346Y-18175024D01*
X8729930Y-18190930D01*
X8714024Y-18205346D01*
X8696781Y-18218134D01*
X8678368Y-18229170D01*
X8658962Y-18238349D01*
X8638750Y-18245581D01*
X8617926Y-18250797D01*
X8596691Y-18253947D01*
X8575250Y-18255000D01*
X8137750Y-18255000D01*
X8116309Y-18253947D01*
X8095074Y-18250797D01*
X8074250Y-18245581D01*
X8054038Y-18238349D01*
X8034632Y-18229170D01*
X8016219Y-18218134D01*
X7998976Y-18205346D01*
X7983070Y-18190930D01*
X7968654Y-18175024D01*
X7955866Y-18157781D01*
X7944830Y-18139368D01*
X7935651Y-18119962D01*
X7928419Y-18099750D01*
X7923203Y-18078926D01*
X7920053Y-18057691D01*
X7919000Y-18036250D01*
X7919000Y-17523750D01*
X7920053Y-17502309D01*
X7923203Y-17481074D01*
X7928419Y-17460250D01*
X7935651Y-17440038D01*
X7944830Y-17420632D01*
X7955866Y-17402219D01*
X7968654Y-17384976D01*
X7983070Y-17369070D01*
X7998976Y-17354654D01*
X8016219Y-17341866D01*
X8034632Y-17330830D01*
X8054038Y-17321651D01*
X8074250Y-17314419D01*
X8095074Y-17309203D01*
X8116309Y-17306053D01*
X8137750Y-17305000D01*
X8575250Y-17305000D01*
X8596691Y-17306053D01*
X8596691Y-17306053D01*
G37*
D12*
X8356500Y-17780000D03*
D11*
G36*
X10171691Y-17306053D02*
G01*
X10192926Y-17309203D01*
X10213750Y-17314419D01*
X10233962Y-17321651D01*
X10253368Y-17330830D01*
X10271781Y-17341866D01*
X10289024Y-17354654D01*
X10304930Y-17369070D01*
X10319346Y-17384976D01*
X10332134Y-17402219D01*
X10343170Y-17420632D01*
X10352349Y-17440038D01*
X10359581Y-17460250D01*
X10364797Y-17481074D01*
X10367947Y-17502309D01*
X10369000Y-17523750D01*
X10369000Y-18036250D01*
X10367947Y-18057691D01*
X10364797Y-18078926D01*
X10359581Y-18099750D01*
X10352349Y-18119962D01*
X10343170Y-18139368D01*
X10332134Y-18157781D01*
X10319346Y-18175024D01*
X10304930Y-18190930D01*
X10289024Y-18205346D01*
X10271781Y-18218134D01*
X10253368Y-18229170D01*
X10233962Y-18238349D01*
X10213750Y-18245581D01*
X10192926Y-18250797D01*
X10171691Y-18253947D01*
X10150250Y-18255000D01*
X9712750Y-18255000D01*
X9691309Y-18253947D01*
X9670074Y-18250797D01*
X9649250Y-18245581D01*
X9629038Y-18238349D01*
X9609632Y-18229170D01*
X9591219Y-18218134D01*
X9573976Y-18205346D01*
X9558070Y-18190930D01*
X9543654Y-18175024D01*
X9530866Y-18157781D01*
X9519830Y-18139368D01*
X9510651Y-18119962D01*
X9503419Y-18099750D01*
X9498203Y-18078926D01*
X9495053Y-18057691D01*
X9494000Y-18036250D01*
X9494000Y-17523750D01*
X9495053Y-17502309D01*
X9498203Y-17481074D01*
X9503419Y-17460250D01*
X9510651Y-17440038D01*
X9519830Y-17420632D01*
X9530866Y-17402219D01*
X9543654Y-17384976D01*
X9558070Y-17369070D01*
X9573976Y-17354654D01*
X9591219Y-17341866D01*
X9609632Y-17330830D01*
X9629038Y-17321651D01*
X9649250Y-17314419D01*
X9670074Y-17309203D01*
X9691309Y-17306053D01*
X9712750Y-17305000D01*
X10150250Y-17305000D01*
X10171691Y-17306053D01*
X10171691Y-17306053D01*
G37*
D12*
X9931500Y-17780000D03*
D13*
X105156000Y-1411999D03*
X107696000Y-1411999D03*
X112776000Y-1411999D03*
X115316000Y-1411999D03*
X110236000Y-1411999D03*
X115316000Y-20411999D03*
X112776000Y-20411999D03*
X107696000Y-20411999D03*
X105156000Y-20411999D03*
X110236000Y-20411999D03*
X91948000Y-1411999D03*
X94488000Y-1411999D03*
X99568000Y-1411999D03*
X102108000Y-1411999D03*
X97028000Y-1411999D03*
X102108000Y-20411999D03*
X99568000Y-20411999D03*
X94488000Y-20411999D03*
X91948000Y-20411999D03*
X97028000Y-20411999D03*
X78786000Y-1411999D03*
X81326000Y-1411999D03*
X86406000Y-1411999D03*
X88946000Y-1411999D03*
X83866000Y-1411999D03*
X88946000Y-20411999D03*
X86406000Y-20411999D03*
X81326000Y-20411999D03*
X78786000Y-20411999D03*
X83866000Y-20411999D03*
X65532000Y-1255999D03*
X68072000Y-1255999D03*
X73152000Y-1255999D03*
X75692000Y-1255999D03*
X70612000Y-1255999D03*
X75692000Y-20255999D03*
X73152000Y-20255999D03*
X68072000Y-20255999D03*
X65532000Y-20255999D03*
X70612000Y-20255999D03*
X52324000Y-1255999D03*
X54864000Y-1255999D03*
X59944000Y-1255999D03*
X62484000Y-1255999D03*
X57404000Y-1255999D03*
X62484000Y-20255999D03*
X59944000Y-20255999D03*
X54864000Y-20255999D03*
X52324000Y-20255999D03*
X57404000Y-20255999D03*
X39162000Y-1255999D03*
X41702000Y-1255999D03*
X46782000Y-1255999D03*
X49322000Y-1255999D03*
X44242000Y-1255999D03*
X49322000Y-20255999D03*
X46782000Y-20255999D03*
X41702000Y-20255999D03*
X39162000Y-20255999D03*
X44242000Y-20255999D03*
X25908000Y-1168000D03*
X28448000Y-1168000D03*
X33528000Y-1168000D03*
X36068000Y-1168000D03*
X30988000Y-1168000D03*
X36068000Y-20168000D03*
X33528000Y-20168000D03*
X28448000Y-20168000D03*
X25908000Y-20168000D03*
X30988000Y-20168000D03*
X12700000Y-1168000D03*
X15240000Y-1168000D03*
X20320000Y-1168000D03*
X22860000Y-1168000D03*
X17780000Y-1168000D03*
X22860000Y-20168000D03*
X20320000Y-20168000D03*
X15240000Y-20168000D03*
X12700000Y-20168000D03*
X17780000Y-20168000D03*
D14*
X7112000Y-18796000D03*
X11176000Y-15748000D03*
X110236000Y-15748000D03*
X91440000Y-15748000D03*
X78232000Y-15748000D03*
X65024000Y-15748000D03*
X51816000Y-15748000D03*
X38608000Y-15748000D03*
X25400000Y-15748000D03*
X11176000Y-11684000D03*
X107188000Y-11684000D03*
X97028000Y-11684000D03*
X80772000Y-11684000D03*
X67564000Y-11684000D03*
X54356000Y-11684000D03*
X41148000Y-11684000D03*
X27940000Y-11684000D03*
X14732000Y-11684000D03*
X11176000Y-9652000D03*
X112268000Y-9652000D03*
X85852000Y-9652000D03*
X99060000Y-9652000D03*
X30988000Y-9652000D03*
X72644000Y-9652000D03*
X59436000Y-9652000D03*
X46228000Y-9652000D03*
X19812000Y-9652000D03*
X11176000Y-13716000D03*
X114808000Y-13716000D03*
X88392000Y-13716000D03*
X101600000Y-13716000D03*
X44196000Y-13716000D03*
X75184000Y-13716000D03*
X61976000Y-13716000D03*
X35560000Y-13716000D03*
X22352000Y-13716000D03*
X11176000Y-5588000D03*
X104648000Y-5588000D03*
X93980000Y-5588000D03*
X79248000Y-5588000D03*
X17780000Y-5588000D03*
X68580000Y-5588000D03*
X60452000Y-5588000D03*
X48768000Y-5588000D03*
X33020000Y-5588000D03*
X11176000Y-17780000D03*
X113284000Y-17780000D03*
X100076000Y-17780000D03*
X86868000Y-17780000D03*
X57404000Y-17780000D03*
X73660000Y-17780000D03*
X47244000Y-17780000D03*
X34036000Y-17780000D03*
X20828000Y-17780000D03*
X11176000Y-3556000D03*
X108204000Y-3556000D03*
X94996000Y-3556000D03*
X81788000Y-3556000D03*
X70612000Y-3556000D03*
X55372000Y-3556000D03*
X42164000Y-3556000D03*
X28956000Y-3556000D03*
X15748000Y-3556000D03*
X11176000Y-7620000D03*
X105664000Y-7620000D03*
X92964000Y-7620000D03*
X83866000Y-7666000D03*
X66040000Y-7620000D03*
X52832000Y-7620000D03*
X39624000Y-7620000D03*
X26416000Y-7620000D03*
X13208000Y-7620000D03*
D15*
X7112000Y-18796000D02*
X7112000Y-18288000D01*
X7112000Y-18288000D02*
X7620000Y-17780000D01*
X7620000Y-17780000D02*
X8356500Y-17780000D01*
X8356500Y-15173000D02*
X8356500Y-15748000D01*
X6486490Y-13302990D02*
X8356500Y-15173000D01*
X4509275Y-13302990D02*
X6486490Y-13302990D01*
X3144285Y-11938000D02*
X4509275Y-13302990D01*
X2286000Y-11938000D02*
X3144285Y-11938000D01*
X7143980Y-11715980D02*
X4826000Y-9398000D01*
X7143980Y-12503480D02*
X7143980Y-11715980D01*
X8356500Y-13716000D02*
X7143980Y-12503480D01*
X3461010Y-8222990D02*
X2286000Y-9398000D01*
X6132705Y-8222990D02*
X3461010Y-8222990D01*
X7593990Y-10921490D02*
X7593990Y-9684275D01*
X7593990Y-9684275D02*
X6132705Y-8222990D01*
X8356500Y-11684000D02*
X7593990Y-10921490D01*
X5562500Y-6858000D02*
X4826000Y-6858000D01*
X8356500Y-9652000D02*
X5562500Y-6858000D01*
X8356500Y-7620000D02*
X6324500Y-5588000D01*
X3556000Y-5588000D02*
X2286000Y-6858000D01*
X6324500Y-5588000D02*
X3556000Y-5588000D01*
X7086500Y-4318000D02*
X4826000Y-4318000D01*
X8356500Y-5588000D02*
X7086500Y-4318000D01*
X6832500Y-2032000D02*
X4572000Y-2032000D01*
X4572000Y-2032000D02*
X2286000Y-4318000D01*
X8356500Y-3556000D02*
X6832500Y-2032000D01*
X9931500Y-15748000D02*
X11176000Y-15748000D01*
X110236000Y-15748000D02*
X110236000Y-20411999D01*
X110236000Y-15748000D02*
X110236000Y-1411999D01*
X91948000Y-1411999D02*
X91948000Y-2032000D01*
X91948000Y-2032000D02*
X91440000Y-2540000D01*
X91440000Y-2540000D02*
X91440000Y-15748000D01*
X78786000Y-1411999D02*
X78786000Y-1986000D01*
X78786000Y-1986000D02*
X78232000Y-2540000D01*
X78232000Y-2540000D02*
X78232000Y-15748000D01*
X65532000Y-1255999D02*
X65532000Y-1524000D01*
X65024000Y-2032000D02*
X65024000Y-15748000D01*
X65532000Y-1524000D02*
X65024000Y-2032000D01*
X52324000Y-1255999D02*
X51816000Y-1763999D01*
X51816000Y-1763999D02*
X51816000Y-15748000D01*
X39162000Y-1505999D02*
X38635999Y-2032000D01*
X39162000Y-1255999D02*
X39162000Y-1505999D01*
X38635999Y-15720001D02*
X38608000Y-15748000D01*
X38635999Y-2032000D02*
X38635999Y-15720001D01*
X25908000Y-1168000D02*
X25908000Y-1524000D01*
X25908000Y-1524000D02*
X25400000Y-2032000D01*
X25400000Y-2032000D02*
X25400000Y-15748000D01*
X12700000Y-1168000D02*
X12700000Y-1524000D01*
X12700000Y-1524000D02*
X12192000Y-2032000D01*
X12192000Y-2032000D02*
X12192000Y-15240000D01*
X12192000Y-15240000D02*
X11684000Y-15748000D01*
X11684000Y-15748000D02*
X11176000Y-15748000D01*
X9931500Y-11684000D02*
X11176000Y-11684000D01*
X107188000Y-1919999D02*
X107696000Y-1411999D01*
X107188000Y-11684000D02*
X107188000Y-1919999D01*
X97028000Y-20411999D02*
X97028000Y-11684000D01*
X97028000Y-11684000D02*
X97028000Y-1411999D01*
X81326000Y-1411999D02*
X81326000Y-1986000D01*
X80772000Y-2540000D02*
X80772000Y-11684000D01*
X81326000Y-1986000D02*
X80772000Y-2540000D01*
X68072000Y-1255999D02*
X68072000Y-1524000D01*
X67564000Y-2032000D02*
X67564000Y-11684000D01*
X68072000Y-1524000D02*
X67564000Y-2032000D01*
X54864000Y-1255999D02*
X54864000Y-1524000D01*
X54864000Y-1524000D02*
X54356000Y-2032000D01*
X54356000Y-2032000D02*
X54356000Y-11684000D01*
X41702000Y-1255999D02*
X41702000Y-1478000D01*
X41702000Y-1478000D02*
X41148000Y-2032000D01*
X41148000Y-2032000D02*
X41148000Y-11684000D01*
X28448000Y-1168000D02*
X28448000Y-1524000D01*
X27940000Y-2032000D02*
X27940000Y-11684000D01*
X28448000Y-1524000D02*
X27940000Y-2032000D01*
X15240000Y-1168000D02*
X15240000Y-1524000D01*
X15240000Y-1524000D02*
X14732000Y-2032000D01*
X14732000Y-2032000D02*
X14732000Y-11684000D01*
X9931500Y-9652000D02*
X11176000Y-9652000D01*
X112776000Y-1411999D02*
X112776000Y-2032000D01*
X112268000Y-2540000D02*
X112268000Y-9652000D01*
X112776000Y-2032000D02*
X112268000Y-2540000D01*
X86406000Y-1411999D02*
X86406000Y-1986000D01*
X85852000Y-2540000D02*
X85852000Y-9652000D01*
X86406000Y-1986000D02*
X85852000Y-2540000D01*
X99568000Y-1411999D02*
X99568000Y-2032000D01*
X99568000Y-2032000D02*
X99060000Y-2540000D01*
X99060000Y-2540000D02*
X99060000Y-9652000D01*
X30988000Y-1168000D02*
X30988000Y-9652000D01*
X30988000Y-9652000D02*
X30988000Y-20168000D01*
X73152000Y-1255999D02*
X73152000Y-1524000D01*
X73152000Y-1524000D02*
X72644000Y-2032000D01*
X72644000Y-2032000D02*
X72644000Y-9652000D01*
X59944000Y-1255999D02*
X59944000Y-1524000D01*
X59436000Y-2032000D02*
X59436000Y-9652000D01*
X59944000Y-1524000D02*
X59436000Y-2032000D01*
X46782000Y-1255999D02*
X46782000Y-1478000D01*
X46782000Y-1478000D02*
X46228000Y-2032000D01*
X46228000Y-2032000D02*
X46228000Y-9652000D01*
X20320000Y-1168000D02*
X20320000Y-1524000D01*
X20320000Y-1524000D02*
X19812000Y-2032000D01*
X19812000Y-2032000D02*
X19812000Y-9652000D01*
X9931500Y-13716000D02*
X11176000Y-13716000D01*
X114808000Y-1919999D02*
X115316000Y-1411999D01*
X114808000Y-13716000D02*
X114808000Y-1919999D01*
X88946000Y-1411999D02*
X88946000Y-1986000D01*
X88392000Y-2540000D02*
X88392000Y-13716000D01*
X88946000Y-1986000D02*
X88392000Y-2540000D01*
X102108000Y-1411999D02*
X102108000Y-2032000D01*
X102108000Y-2032000D02*
X101600000Y-2540000D01*
X101600000Y-2540000D02*
X101600000Y-13716000D01*
X44242000Y-13762000D02*
X44196000Y-13716000D01*
X44242000Y-20255999D02*
X44242000Y-13762000D01*
X44196000Y-1301999D02*
X44242000Y-1255999D01*
X44196000Y-13716000D02*
X44196000Y-1301999D01*
X75692000Y-1255999D02*
X75184000Y-1763999D01*
X75184000Y-1763999D02*
X75184000Y-13716000D01*
X62484000Y-1505999D02*
X61976000Y-2013999D01*
X62484000Y-1255999D02*
X62484000Y-1505999D01*
X61976000Y-2013999D02*
X61976000Y-2032000D01*
X61976000Y-2032000D02*
X61976000Y-13716000D01*
X36068000Y-1168000D02*
X36068000Y-1524000D01*
X35560000Y-2032000D02*
X35560000Y-13716000D01*
X36068000Y-1524000D02*
X35560000Y-2032000D01*
X22860000Y-1168000D02*
X22860000Y-1524000D01*
X22352000Y-2032000D02*
X22352000Y-13716000D01*
X22860000Y-1524000D02*
X22352000Y-2032000D01*
X9931500Y-5588000D02*
X11176000Y-5588000D01*
X105156000Y-1411999D02*
X105156000Y-2032000D01*
X104648000Y-2540000D02*
X104648000Y-5588000D01*
X105156000Y-2032000D02*
X104648000Y-2540000D01*
X94488000Y-1411999D02*
X94488000Y-2032000D01*
X93980000Y-2540000D02*
X93980000Y-5588000D01*
X94488000Y-2032000D02*
X93980000Y-2540000D01*
X78786000Y-20411999D02*
X78786000Y-19766000D01*
X78786000Y-19766000D02*
X79248000Y-19304000D01*
X79248000Y-19304000D02*
X79248000Y-5588000D01*
X17780000Y-1168000D02*
X17780000Y-5588000D01*
X17780000Y-5588000D02*
X17780000Y-20168000D01*
X68072000Y-20255999D02*
X68072000Y-19812000D01*
X68072000Y-19812000D02*
X68580000Y-19304000D01*
X68580000Y-19304000D02*
X68580000Y-5588000D01*
X59944000Y-19812000D02*
X59944000Y-20255999D01*
X60452000Y-5588000D02*
X60452000Y-19304000D01*
X60452000Y-19304000D02*
X59944000Y-19812000D01*
X49322000Y-1255999D02*
X49322000Y-1478000D01*
X49322000Y-1478000D02*
X48768000Y-2032000D01*
X48768000Y-2032000D02*
X48768000Y-5588000D01*
X33528000Y-1168000D02*
X33528000Y-1524000D01*
X33020000Y-2032000D02*
X33020000Y-5588000D01*
X33528000Y-1524000D02*
X33020000Y-2032000D01*
X9931500Y-17780000D02*
X11176000Y-17780000D01*
X113284000Y-19903999D02*
X112776000Y-20411999D01*
X113284000Y-17780000D02*
X113284000Y-19903999D01*
X99568000Y-20411999D02*
X99568000Y-19812000D01*
X99568000Y-19812000D02*
X100076000Y-19304000D01*
X100076000Y-19304000D02*
X100076000Y-17780000D01*
X86406000Y-20411999D02*
X86406000Y-19766000D01*
X86406000Y-19766000D02*
X86868000Y-19304000D01*
X86868000Y-19304000D02*
X86868000Y-17780000D01*
X57404000Y-20255999D02*
X57404000Y-17780000D01*
X57404000Y-17780000D02*
X57404000Y-1255999D01*
X73152000Y-20255999D02*
X73152000Y-19812000D01*
X73152000Y-19812000D02*
X73660000Y-19304000D01*
X73660000Y-19304000D02*
X73660000Y-17780000D01*
X46782000Y-20255999D02*
X46782000Y-19766000D01*
X47244000Y-19304000D02*
X47244000Y-17780000D01*
X46782000Y-19766000D02*
X47244000Y-19304000D01*
X33528000Y-20168000D02*
X33528000Y-19812000D01*
X33528000Y-19812000D02*
X34036000Y-19304000D01*
X34036000Y-19304000D02*
X34036000Y-17780000D01*
X20320000Y-20168000D02*
X20320000Y-19812000D01*
X20320000Y-19812000D02*
X20828000Y-19304000D01*
X20828000Y-19304000D02*
X20828000Y-17780000D01*
X9931500Y-3556000D02*
X11176000Y-3556000D01*
X107696000Y-20411999D02*
X107696000Y-19812000D01*
X107696000Y-19812000D02*
X108204000Y-19304000D01*
X108204000Y-19304000D02*
X108204000Y-3556000D01*
X94488000Y-20411999D02*
X94488000Y-19812000D01*
X94488000Y-19812000D02*
X94996000Y-19304000D01*
X94996000Y-19304000D02*
X94996000Y-3556000D01*
X81326000Y-20411999D02*
X81326000Y-19766000D01*
X81788000Y-19304000D02*
X81788000Y-3556000D01*
X81326000Y-19766000D02*
X81788000Y-19304000D01*
X70612000Y-20255999D02*
X70612000Y-3556000D01*
X70612000Y-1255999D02*
X70612000Y-3556000D01*
X55372000Y-19304000D02*
X54864000Y-19812000D01*
X54864000Y-19812000D02*
X54864000Y-20255999D01*
X55372000Y-3556000D02*
X55372000Y-19304000D01*
X41702000Y-20255999D02*
X41702000Y-19766000D01*
X41702000Y-19766000D02*
X42164000Y-19304000D01*
X42164000Y-19304000D02*
X42164000Y-3556000D01*
X28448000Y-20168000D02*
X28448000Y-19812000D01*
X28448000Y-19812000D02*
X28956000Y-19304000D01*
X28956000Y-19304000D02*
X28956000Y-3556000D01*
X15240000Y-19918000D02*
X15748000Y-19410000D01*
X15240000Y-20168000D02*
X15240000Y-19918000D01*
X15748000Y-19410000D02*
X15748000Y-3556000D01*
X9931500Y-7620000D02*
X11176000Y-7620000D01*
X105664000Y-19903999D02*
X105156000Y-20411999D01*
X105664000Y-7620000D02*
X105664000Y-19903999D01*
X91948000Y-20411999D02*
X91948000Y-19812000D01*
X92964000Y-18796000D02*
X92964000Y-7620000D01*
X91948000Y-19812000D02*
X92964000Y-18796000D01*
X83866000Y-20411999D02*
X83866000Y-19766000D01*
X83866000Y-20411999D02*
X83866000Y-7666000D01*
X83866000Y-7666000D02*
X83866000Y-1411999D01*
X65532000Y-20255999D02*
X65532000Y-19812000D01*
X65532000Y-19812000D02*
X66040000Y-19304000D01*
X66040000Y-19304000D02*
X66040000Y-7620000D01*
X52324000Y-19812000D02*
X52324000Y-20255999D01*
X52832000Y-19304000D02*
X52324000Y-19812000D01*
X52832000Y-7620000D02*
X52832000Y-19304000D01*
X39162000Y-20255999D02*
X39162000Y-19766000D01*
X39162000Y-19766000D02*
X39624000Y-19304000D01*
X39624000Y-19304000D02*
X39624000Y-7620000D01*
X25908000Y-20168000D02*
X25908000Y-19812000D01*
X25908000Y-19812000D02*
X26416000Y-19304000D01*
X26416000Y-19304000D02*
X26416000Y-7620000D01*
X12700000Y-20168000D02*
X12700000Y-19812000D01*
X13208000Y-19304000D02*
X13208000Y-7620000D01*
X12700000Y-19812000D02*
X13208000Y-19304000D01*
M02*
