G04 #@! TF.GenerationSoftware,KiCad,Pcbnew,5.1.4+dfsg1-1*
G04 #@! TF.CreationDate,2019-11-19T11:58:45-08:00*
G04 #@! TF.ProjectId,pmod-7-segment-v3,706d6f64-2d37-42d7-9365-676d656e742d,rev?*
G04 #@! TF.SameCoordinates,PX1f7d860PY56b8320*
G04 #@! TF.FileFunction,Legend,Bot*
G04 #@! TF.FilePolarity,Positive*
%FSLAX46Y46*%
G04 Gerber Fmt 4.6, Leading zero omitted, Abs format (unit mm)*
G04 Created by KiCad (PCBNEW 5.1.4+dfsg1-1) date 2019-11-19 11:58:45*
%MOMM*%
%LPD*%
G04 APERTURE LIST*
%ADD10C,0.750000*%
G04 APERTURE END LIST*
D10*
X115043428Y-10025142D02*
X115043428Y-13025142D01*
X115043428Y-10168000D02*
X114757714Y-10025142D01*
X114186285Y-10025142D01*
X113900571Y-10168000D01*
X113757714Y-10310857D01*
X113614857Y-10596571D01*
X113614857Y-11453714D01*
X113757714Y-11739428D01*
X113900571Y-11882285D01*
X114186285Y-12025142D01*
X114757714Y-12025142D01*
X115043428Y-11882285D01*
X112329142Y-12025142D02*
X112329142Y-10025142D01*
X112329142Y-10310857D02*
X112186285Y-10168000D01*
X111900571Y-10025142D01*
X111472000Y-10025142D01*
X111186285Y-10168000D01*
X111043428Y-10453714D01*
X111043428Y-12025142D01*
X111043428Y-10453714D02*
X110900571Y-10168000D01*
X110614857Y-10025142D01*
X110186285Y-10025142D01*
X109900571Y-10168000D01*
X109757714Y-10453714D01*
X109757714Y-12025142D01*
X107900571Y-12025142D02*
X108186285Y-11882285D01*
X108329142Y-11739428D01*
X108472000Y-11453714D01*
X108472000Y-10596571D01*
X108329142Y-10310857D01*
X108186285Y-10168000D01*
X107900571Y-10025142D01*
X107472000Y-10025142D01*
X107186285Y-10168000D01*
X107043428Y-10310857D01*
X106900571Y-10596571D01*
X106900571Y-11453714D01*
X107043428Y-11739428D01*
X107186285Y-11882285D01*
X107472000Y-12025142D01*
X107900571Y-12025142D01*
X104329142Y-12025142D02*
X104329142Y-9025142D01*
X104329142Y-11882285D02*
X104614857Y-12025142D01*
X105186285Y-12025142D01*
X105472000Y-11882285D01*
X105614857Y-11739428D01*
X105757714Y-11453714D01*
X105757714Y-10596571D01*
X105614857Y-10310857D01*
X105472000Y-10168000D01*
X105186285Y-10025142D01*
X104614857Y-10025142D01*
X104329142Y-10168000D01*
X103186285Y-9025142D02*
X101186285Y-9025142D01*
X102472000Y-12025142D01*
X100043428Y-11739428D02*
X99900571Y-11882285D01*
X100043428Y-12025142D01*
X100186285Y-11882285D01*
X100043428Y-11739428D01*
X100043428Y-12025142D01*
X99043428Y-10025142D02*
X97900571Y-10025142D01*
X98614857Y-9025142D02*
X98614857Y-11596571D01*
X98472000Y-11882285D01*
X98186285Y-12025142D01*
X97900571Y-12025142D01*
X96472000Y-12025142D02*
X96757714Y-11882285D01*
X96900571Y-11739428D01*
X97043428Y-11453714D01*
X97043428Y-10596571D01*
X96900571Y-10310857D01*
X96757714Y-10168000D01*
X96472000Y-10025142D01*
X96043428Y-10025142D01*
X95757714Y-10168000D01*
X95614857Y-10310857D01*
X95472000Y-10596571D01*
X95472000Y-11453714D01*
X95614857Y-11739428D01*
X95757714Y-11882285D01*
X96043428Y-12025142D01*
X96472000Y-12025142D01*
X94186285Y-12025142D02*
X94186285Y-10025142D01*
X94186285Y-10310857D02*
X94043428Y-10168000D01*
X93757714Y-10025142D01*
X93329142Y-10025142D01*
X93043428Y-10168000D01*
X92900571Y-10453714D01*
X92900571Y-12025142D01*
X92900571Y-10453714D02*
X92757714Y-10168000D01*
X92472000Y-10025142D01*
X92043428Y-10025142D01*
X91757714Y-10168000D01*
X91614857Y-10453714D01*
X91614857Y-12025142D01*
X90186285Y-12025142D02*
X90186285Y-9025142D01*
X89900571Y-10882285D02*
X89043428Y-12025142D01*
X89043428Y-10025142D02*
X90186285Y-11168000D01*
X87757714Y-11739428D02*
X87614857Y-11882285D01*
X87757714Y-12025142D01*
X87900571Y-11882285D01*
X87757714Y-11739428D01*
X87757714Y-12025142D01*
X86329142Y-12025142D02*
X86329142Y-10025142D01*
X86329142Y-9025142D02*
X86472000Y-9168000D01*
X86329142Y-9310857D01*
X86186285Y-9168000D01*
X86329142Y-9025142D01*
X86329142Y-9310857D01*
X84900571Y-10025142D02*
X84900571Y-12025142D01*
X84900571Y-10310857D02*
X84757714Y-10168000D01*
X84472000Y-10025142D01*
X84043428Y-10025142D01*
X83757714Y-10168000D01*
X83614857Y-10453714D01*
X83614857Y-12025142D01*
X80186285Y-10025142D02*
X79472000Y-12025142D01*
X78757714Y-10025142D01*
X77900571Y-9025142D02*
X76043428Y-9025142D01*
X77043428Y-10168000D01*
X76614857Y-10168000D01*
X76329142Y-10310857D01*
X76186285Y-10453714D01*
X76043428Y-10739428D01*
X76043428Y-11453714D01*
X76186285Y-11739428D01*
X76329142Y-11882285D01*
X76614857Y-12025142D01*
X77472000Y-12025142D01*
X77757714Y-11882285D01*
X77900571Y-11739428D01*
X74757714Y-11739428D02*
X74614857Y-11882285D01*
X74757714Y-12025142D01*
X74900571Y-11882285D01*
X74757714Y-11739428D01*
X74757714Y-12025142D01*
X72757714Y-9025142D02*
X72472000Y-9025142D01*
X72186285Y-9168000D01*
X72043428Y-9310857D01*
X71900571Y-9596571D01*
X71757714Y-10168000D01*
X71757714Y-10882285D01*
X71900571Y-11453714D01*
X72043428Y-11739428D01*
X72186285Y-11882285D01*
X72472000Y-12025142D01*
X72757714Y-12025142D01*
X73043428Y-11882285D01*
X73186285Y-11739428D01*
X73329142Y-11453714D01*
X73472000Y-10882285D01*
X73472000Y-10168000D01*
X73329142Y-9596571D01*
X73186285Y-9310857D01*
X73043428Y-9168000D01*
X72757714Y-9025142D01*
M02*
