G04 #@! TF.GenerationSoftware,KiCad,Pcbnew,5.1.4+dfsg1-1*
G04 #@! TF.CreationDate,2019-11-19T11:58:45-08:00*
G04 #@! TF.ProjectId,pmod-7-segment-v3,706d6f64-2d37-42d7-9365-676d656e742d,rev?*
G04 #@! TF.SameCoordinates,PX1f7d860PY56b8320*
G04 #@! TF.FileFunction,Soldermask,Bot*
G04 #@! TF.FilePolarity,Negative*
%FSLAX46Y46*%
G04 Gerber Fmt 4.6, Leading zero omitted, Abs format (unit mm)*
G04 Created by KiCad (PCBNEW 5.1.4+dfsg1-1) date 2019-11-19 11:58:45*
%MOMM*%
%LPD*%
G04 APERTURE LIST*
%ADD10C,0.100000*%
G04 APERTURE END LIST*
D10*
G36*
X2416442Y-16123518D02*
G01*
X2482627Y-16130037D01*
X2652466Y-16181557D01*
X2808991Y-16265222D01*
X2844729Y-16294552D01*
X2946186Y-16377814D01*
X3029448Y-16479271D01*
X3058778Y-16515009D01*
X3142443Y-16671534D01*
X3193963Y-16841373D01*
X3211359Y-17018000D01*
X3193963Y-17194627D01*
X3142443Y-17364466D01*
X3058778Y-17520991D01*
X3029448Y-17556729D01*
X2946186Y-17658186D01*
X2844729Y-17741448D01*
X2808991Y-17770778D01*
X2652466Y-17854443D01*
X2482627Y-17905963D01*
X2416442Y-17912482D01*
X2350260Y-17919000D01*
X1421740Y-17919000D01*
X1355558Y-17912482D01*
X1289373Y-17905963D01*
X1119534Y-17854443D01*
X963009Y-17770778D01*
X927271Y-17741448D01*
X825814Y-17658186D01*
X742552Y-17556729D01*
X713222Y-17520991D01*
X629557Y-17364466D01*
X578037Y-17194627D01*
X560641Y-17018000D01*
X578037Y-16841373D01*
X629557Y-16671534D01*
X713222Y-16515009D01*
X742552Y-16479271D01*
X825814Y-16377814D01*
X927271Y-16294552D01*
X963009Y-16265222D01*
X1119534Y-16181557D01*
X1289373Y-16130037D01*
X1355558Y-16123518D01*
X1421740Y-16117000D01*
X2350260Y-16117000D01*
X2416442Y-16123518D01*
X2416442Y-16123518D01*
G37*
G36*
X5756442Y-16123518D02*
G01*
X5822627Y-16130037D01*
X5992466Y-16181557D01*
X6148991Y-16265222D01*
X6184729Y-16294552D01*
X6286186Y-16377814D01*
X6369448Y-16479271D01*
X6398778Y-16515009D01*
X6482443Y-16671534D01*
X6533963Y-16841373D01*
X6551359Y-17018000D01*
X6533963Y-17194627D01*
X6482443Y-17364466D01*
X6398778Y-17520991D01*
X6369448Y-17556729D01*
X6286186Y-17658186D01*
X6184729Y-17741448D01*
X6148991Y-17770778D01*
X5992466Y-17854443D01*
X5822627Y-17905963D01*
X5756442Y-17912482D01*
X5690260Y-17919000D01*
X4761740Y-17919000D01*
X4695558Y-17912482D01*
X4629373Y-17905963D01*
X4459534Y-17854443D01*
X4303009Y-17770778D01*
X4267271Y-17741448D01*
X4165814Y-17658186D01*
X4082552Y-17556729D01*
X4053222Y-17520991D01*
X3969557Y-17364466D01*
X3918037Y-17194627D01*
X3900641Y-17018000D01*
X3918037Y-16841373D01*
X3969557Y-16671534D01*
X4053222Y-16515009D01*
X4082552Y-16479271D01*
X4165814Y-16377814D01*
X4267271Y-16294552D01*
X4303009Y-16265222D01*
X4459534Y-16181557D01*
X4629373Y-16130037D01*
X4695558Y-16123518D01*
X4761740Y-16117000D01*
X5690260Y-16117000D01*
X5756442Y-16123518D01*
X5756442Y-16123518D01*
G37*
G36*
X2416443Y-13583519D02*
G01*
X2482627Y-13590037D01*
X2652466Y-13641557D01*
X2808991Y-13725222D01*
X2844729Y-13754552D01*
X2946186Y-13837814D01*
X3029448Y-13939271D01*
X3058778Y-13975009D01*
X3142443Y-14131534D01*
X3193963Y-14301373D01*
X3211359Y-14478000D01*
X3193963Y-14654627D01*
X3142443Y-14824466D01*
X3058778Y-14980991D01*
X3029448Y-15016729D01*
X2946186Y-15118186D01*
X2844729Y-15201448D01*
X2808991Y-15230778D01*
X2652466Y-15314443D01*
X2482627Y-15365963D01*
X2416442Y-15372482D01*
X2350260Y-15379000D01*
X1421740Y-15379000D01*
X1355558Y-15372482D01*
X1289373Y-15365963D01*
X1119534Y-15314443D01*
X963009Y-15230778D01*
X927271Y-15201448D01*
X825814Y-15118186D01*
X742552Y-15016729D01*
X713222Y-14980991D01*
X629557Y-14824466D01*
X578037Y-14654627D01*
X560641Y-14478000D01*
X578037Y-14301373D01*
X629557Y-14131534D01*
X713222Y-13975009D01*
X742552Y-13939271D01*
X825814Y-13837814D01*
X927271Y-13754552D01*
X963009Y-13725222D01*
X1119534Y-13641557D01*
X1289373Y-13590037D01*
X1355557Y-13583519D01*
X1421740Y-13577000D01*
X2350260Y-13577000D01*
X2416443Y-13583519D01*
X2416443Y-13583519D01*
G37*
G36*
X5756443Y-13583519D02*
G01*
X5822627Y-13590037D01*
X5992466Y-13641557D01*
X6148991Y-13725222D01*
X6184729Y-13754552D01*
X6286186Y-13837814D01*
X6369448Y-13939271D01*
X6398778Y-13975009D01*
X6482443Y-14131534D01*
X6533963Y-14301373D01*
X6551359Y-14478000D01*
X6533963Y-14654627D01*
X6482443Y-14824466D01*
X6398778Y-14980991D01*
X6369448Y-15016729D01*
X6286186Y-15118186D01*
X6184729Y-15201448D01*
X6148991Y-15230778D01*
X5992466Y-15314443D01*
X5822627Y-15365963D01*
X5756442Y-15372482D01*
X5690260Y-15379000D01*
X4761740Y-15379000D01*
X4695558Y-15372482D01*
X4629373Y-15365963D01*
X4459534Y-15314443D01*
X4303009Y-15230778D01*
X4267271Y-15201448D01*
X4165814Y-15118186D01*
X4082552Y-15016729D01*
X4053222Y-14980991D01*
X3969557Y-14824466D01*
X3918037Y-14654627D01*
X3900641Y-14478000D01*
X3918037Y-14301373D01*
X3969557Y-14131534D01*
X4053222Y-13975009D01*
X4082552Y-13939271D01*
X4165814Y-13837814D01*
X4267271Y-13754552D01*
X4303009Y-13725222D01*
X4459534Y-13641557D01*
X4629373Y-13590037D01*
X4695557Y-13583519D01*
X4761740Y-13577000D01*
X5690260Y-13577000D01*
X5756443Y-13583519D01*
X5756443Y-13583519D01*
G37*
G36*
X5756442Y-11043518D02*
G01*
X5822627Y-11050037D01*
X5992466Y-11101557D01*
X6148991Y-11185222D01*
X6184729Y-11214552D01*
X6286186Y-11297814D01*
X6369448Y-11399271D01*
X6398778Y-11435009D01*
X6482443Y-11591534D01*
X6533963Y-11761373D01*
X6551359Y-11938000D01*
X6533963Y-12114627D01*
X6482443Y-12284466D01*
X6398778Y-12440991D01*
X6369448Y-12476729D01*
X6286186Y-12578186D01*
X6184729Y-12661448D01*
X6148991Y-12690778D01*
X5992466Y-12774443D01*
X5822627Y-12825963D01*
X5756443Y-12832481D01*
X5690260Y-12839000D01*
X4761740Y-12839000D01*
X4695557Y-12832481D01*
X4629373Y-12825963D01*
X4459534Y-12774443D01*
X4303009Y-12690778D01*
X4267271Y-12661448D01*
X4165814Y-12578186D01*
X4082552Y-12476729D01*
X4053222Y-12440991D01*
X3969557Y-12284466D01*
X3918037Y-12114627D01*
X3900641Y-11938000D01*
X3918037Y-11761373D01*
X3969557Y-11591534D01*
X4053222Y-11435009D01*
X4082552Y-11399271D01*
X4165814Y-11297814D01*
X4267271Y-11214552D01*
X4303009Y-11185222D01*
X4459534Y-11101557D01*
X4629373Y-11050037D01*
X4695558Y-11043518D01*
X4761740Y-11037000D01*
X5690260Y-11037000D01*
X5756442Y-11043518D01*
X5756442Y-11043518D01*
G37*
G36*
X2416442Y-11043518D02*
G01*
X2482627Y-11050037D01*
X2652466Y-11101557D01*
X2808991Y-11185222D01*
X2844729Y-11214552D01*
X2946186Y-11297814D01*
X3029448Y-11399271D01*
X3058778Y-11435009D01*
X3142443Y-11591534D01*
X3193963Y-11761373D01*
X3211359Y-11938000D01*
X3193963Y-12114627D01*
X3142443Y-12284466D01*
X3058778Y-12440991D01*
X3029448Y-12476729D01*
X2946186Y-12578186D01*
X2844729Y-12661448D01*
X2808991Y-12690778D01*
X2652466Y-12774443D01*
X2482627Y-12825963D01*
X2416443Y-12832481D01*
X2350260Y-12839000D01*
X1421740Y-12839000D01*
X1355557Y-12832481D01*
X1289373Y-12825963D01*
X1119534Y-12774443D01*
X963009Y-12690778D01*
X927271Y-12661448D01*
X825814Y-12578186D01*
X742552Y-12476729D01*
X713222Y-12440991D01*
X629557Y-12284466D01*
X578037Y-12114627D01*
X560641Y-11938000D01*
X578037Y-11761373D01*
X629557Y-11591534D01*
X713222Y-11435009D01*
X742552Y-11399271D01*
X825814Y-11297814D01*
X927271Y-11214552D01*
X963009Y-11185222D01*
X1119534Y-11101557D01*
X1289373Y-11050037D01*
X1355558Y-11043518D01*
X1421740Y-11037000D01*
X2350260Y-11037000D01*
X2416442Y-11043518D01*
X2416442Y-11043518D01*
G37*
G36*
X2416443Y-8503519D02*
G01*
X2482627Y-8510037D01*
X2652466Y-8561557D01*
X2808991Y-8645222D01*
X2844729Y-8674552D01*
X2946186Y-8757814D01*
X3029448Y-8859271D01*
X3058778Y-8895009D01*
X3142443Y-9051534D01*
X3193963Y-9221373D01*
X3211359Y-9398000D01*
X3193963Y-9574627D01*
X3142443Y-9744466D01*
X3058778Y-9900991D01*
X3029448Y-9936729D01*
X2946186Y-10038186D01*
X2844729Y-10121448D01*
X2808991Y-10150778D01*
X2652466Y-10234443D01*
X2482627Y-10285963D01*
X2416442Y-10292482D01*
X2350260Y-10299000D01*
X1421740Y-10299000D01*
X1355558Y-10292482D01*
X1289373Y-10285963D01*
X1119534Y-10234443D01*
X963009Y-10150778D01*
X927271Y-10121448D01*
X825814Y-10038186D01*
X742552Y-9936729D01*
X713222Y-9900991D01*
X629557Y-9744466D01*
X578037Y-9574627D01*
X560641Y-9398000D01*
X578037Y-9221373D01*
X629557Y-9051534D01*
X713222Y-8895009D01*
X742552Y-8859271D01*
X825814Y-8757814D01*
X927271Y-8674552D01*
X963009Y-8645222D01*
X1119534Y-8561557D01*
X1289373Y-8510037D01*
X1355557Y-8503519D01*
X1421740Y-8497000D01*
X2350260Y-8497000D01*
X2416443Y-8503519D01*
X2416443Y-8503519D01*
G37*
G36*
X5756443Y-8503519D02*
G01*
X5822627Y-8510037D01*
X5992466Y-8561557D01*
X6148991Y-8645222D01*
X6184729Y-8674552D01*
X6286186Y-8757814D01*
X6369448Y-8859271D01*
X6398778Y-8895009D01*
X6482443Y-9051534D01*
X6533963Y-9221373D01*
X6551359Y-9398000D01*
X6533963Y-9574627D01*
X6482443Y-9744466D01*
X6398778Y-9900991D01*
X6369448Y-9936729D01*
X6286186Y-10038186D01*
X6184729Y-10121448D01*
X6148991Y-10150778D01*
X5992466Y-10234443D01*
X5822627Y-10285963D01*
X5756442Y-10292482D01*
X5690260Y-10299000D01*
X4761740Y-10299000D01*
X4695558Y-10292482D01*
X4629373Y-10285963D01*
X4459534Y-10234443D01*
X4303009Y-10150778D01*
X4267271Y-10121448D01*
X4165814Y-10038186D01*
X4082552Y-9936729D01*
X4053222Y-9900991D01*
X3969557Y-9744466D01*
X3918037Y-9574627D01*
X3900641Y-9398000D01*
X3918037Y-9221373D01*
X3969557Y-9051534D01*
X4053222Y-8895009D01*
X4082552Y-8859271D01*
X4165814Y-8757814D01*
X4267271Y-8674552D01*
X4303009Y-8645222D01*
X4459534Y-8561557D01*
X4629373Y-8510037D01*
X4695557Y-8503519D01*
X4761740Y-8497000D01*
X5690260Y-8497000D01*
X5756443Y-8503519D01*
X5756443Y-8503519D01*
G37*
G36*
X2416442Y-5963518D02*
G01*
X2482627Y-5970037D01*
X2652466Y-6021557D01*
X2808991Y-6105222D01*
X2844729Y-6134552D01*
X2946186Y-6217814D01*
X3029448Y-6319271D01*
X3058778Y-6355009D01*
X3142443Y-6511534D01*
X3193963Y-6681373D01*
X3211359Y-6858000D01*
X3193963Y-7034627D01*
X3142443Y-7204466D01*
X3058778Y-7360991D01*
X3029448Y-7396729D01*
X2946186Y-7498186D01*
X2844729Y-7581448D01*
X2808991Y-7610778D01*
X2652466Y-7694443D01*
X2482627Y-7745963D01*
X2416442Y-7752482D01*
X2350260Y-7759000D01*
X1421740Y-7759000D01*
X1355558Y-7752482D01*
X1289373Y-7745963D01*
X1119534Y-7694443D01*
X963009Y-7610778D01*
X927271Y-7581448D01*
X825814Y-7498186D01*
X742552Y-7396729D01*
X713222Y-7360991D01*
X629557Y-7204466D01*
X578037Y-7034627D01*
X560641Y-6858000D01*
X578037Y-6681373D01*
X629557Y-6511534D01*
X713222Y-6355009D01*
X742552Y-6319271D01*
X825814Y-6217814D01*
X927271Y-6134552D01*
X963009Y-6105222D01*
X1119534Y-6021557D01*
X1289373Y-5970037D01*
X1355558Y-5963518D01*
X1421740Y-5957000D01*
X2350260Y-5957000D01*
X2416442Y-5963518D01*
X2416442Y-5963518D01*
G37*
G36*
X5756442Y-5963518D02*
G01*
X5822627Y-5970037D01*
X5992466Y-6021557D01*
X6148991Y-6105222D01*
X6184729Y-6134552D01*
X6286186Y-6217814D01*
X6369448Y-6319271D01*
X6398778Y-6355009D01*
X6482443Y-6511534D01*
X6533963Y-6681373D01*
X6551359Y-6858000D01*
X6533963Y-7034627D01*
X6482443Y-7204466D01*
X6398778Y-7360991D01*
X6369448Y-7396729D01*
X6286186Y-7498186D01*
X6184729Y-7581448D01*
X6148991Y-7610778D01*
X5992466Y-7694443D01*
X5822627Y-7745963D01*
X5756442Y-7752482D01*
X5690260Y-7759000D01*
X4761740Y-7759000D01*
X4695558Y-7752482D01*
X4629373Y-7745963D01*
X4459534Y-7694443D01*
X4303009Y-7610778D01*
X4267271Y-7581448D01*
X4165814Y-7498186D01*
X4082552Y-7396729D01*
X4053222Y-7360991D01*
X3969557Y-7204466D01*
X3918037Y-7034627D01*
X3900641Y-6858000D01*
X3918037Y-6681373D01*
X3969557Y-6511534D01*
X4053222Y-6355009D01*
X4082552Y-6319271D01*
X4165814Y-6217814D01*
X4267271Y-6134552D01*
X4303009Y-6105222D01*
X4459534Y-6021557D01*
X4629373Y-5970037D01*
X4695558Y-5963518D01*
X4761740Y-5957000D01*
X5690260Y-5957000D01*
X5756442Y-5963518D01*
X5756442Y-5963518D01*
G37*
G36*
X2416442Y-3423518D02*
G01*
X2482627Y-3430037D01*
X2652466Y-3481557D01*
X2808991Y-3565222D01*
X2844729Y-3594552D01*
X2946186Y-3677814D01*
X3029448Y-3779271D01*
X3058778Y-3815009D01*
X3142443Y-3971534D01*
X3193963Y-4141373D01*
X3211359Y-4318000D01*
X3193963Y-4494627D01*
X3142443Y-4664466D01*
X3058778Y-4820991D01*
X3029448Y-4856729D01*
X2946186Y-4958186D01*
X2844729Y-5041448D01*
X2808991Y-5070778D01*
X2652466Y-5154443D01*
X2482627Y-5205963D01*
X2416442Y-5212482D01*
X2350260Y-5219000D01*
X1421740Y-5219000D01*
X1355558Y-5212482D01*
X1289373Y-5205963D01*
X1119534Y-5154443D01*
X963009Y-5070778D01*
X927271Y-5041448D01*
X825814Y-4958186D01*
X742552Y-4856729D01*
X713222Y-4820991D01*
X629557Y-4664466D01*
X578037Y-4494627D01*
X560641Y-4318000D01*
X578037Y-4141373D01*
X629557Y-3971534D01*
X713222Y-3815009D01*
X742552Y-3779271D01*
X825814Y-3677814D01*
X927271Y-3594552D01*
X963009Y-3565222D01*
X1119534Y-3481557D01*
X1289373Y-3430037D01*
X1355558Y-3423518D01*
X1421740Y-3417000D01*
X2350260Y-3417000D01*
X2416442Y-3423518D01*
X2416442Y-3423518D01*
G37*
G36*
X5756442Y-3423518D02*
G01*
X5822627Y-3430037D01*
X5992466Y-3481557D01*
X6148991Y-3565222D01*
X6184729Y-3594552D01*
X6286186Y-3677814D01*
X6369448Y-3779271D01*
X6398778Y-3815009D01*
X6482443Y-3971534D01*
X6533963Y-4141373D01*
X6551359Y-4318000D01*
X6533963Y-4494627D01*
X6482443Y-4664466D01*
X6398778Y-4820991D01*
X6369448Y-4856729D01*
X6286186Y-4958186D01*
X6184729Y-5041448D01*
X6148991Y-5070778D01*
X5992466Y-5154443D01*
X5822627Y-5205963D01*
X5756442Y-5212482D01*
X5690260Y-5219000D01*
X4761740Y-5219000D01*
X4695558Y-5212482D01*
X4629373Y-5205963D01*
X4459534Y-5154443D01*
X4303009Y-5070778D01*
X4267271Y-5041448D01*
X4165814Y-4958186D01*
X4082552Y-4856729D01*
X4053222Y-4820991D01*
X3969557Y-4664466D01*
X3918037Y-4494627D01*
X3900641Y-4318000D01*
X3918037Y-4141373D01*
X3969557Y-3971534D01*
X4053222Y-3815009D01*
X4082552Y-3779271D01*
X4165814Y-3677814D01*
X4267271Y-3594552D01*
X4303009Y-3565222D01*
X4459534Y-3481557D01*
X4629373Y-3430037D01*
X4695558Y-3423518D01*
X4761740Y-3417000D01*
X5690260Y-3417000D01*
X5756442Y-3423518D01*
X5756442Y-3423518D01*
G37*
M02*
